<svg width="603" height="232" viewBox="0 0 603 232" fill="none" xmlns="http://www.w3.org/2000/svg">
<mask id="path-1-inside-1_13_163" fill="white">
<path fill-rule="evenodd" clip-rule="evenodd" d="M116 177C149.689 177 177 149.689 177 116C177 82.3106 149.689 55 116 55C82.3106 55 55 82.3106 55 116C55 149.689 82.3106 177 116 177ZM116 162C141.405 162 162 141.405 162 116C162 90.5949 141.405 70 116 70C90.5949 70 70 90.5949 70 116C70 141.405 90.5949 162 116 162Z"/>
</mask>
<path fill-rule="evenodd" clip-rule="evenodd" d="M116 177C149.689 177 177 149.689 177 116C177 82.3106 149.689 55 116 55C82.3106 55 55 82.3106 55 116C55 149.689 82.3106 177 116 177ZM116 162C141.405 162 162 141.405 162 116C162 90.5949 141.405 70 116 70C90.5949 70 70 90.5949 70 116C70 141.405 90.5949 162 116 162Z" fill="#FFA800"/>
<path d="M175 116C175 148.585 148.585 175 116 175V179C150.794 179 179 150.794 179 116H175ZM116 57C148.585 57 175 83.4152 175 116H179C179 81.2061 150.794 53 116 53V57ZM57 116C57 83.4152 83.4152 57 116 57V53C81.2061 53 53 81.2061 53 116H57ZM116 175C83.4152 175 57 148.585 57 116H53C53 150.794 81.2061 179 116 179V175ZM160 116C160 140.301 140.301 160 116 160V164C142.51 164 164 142.51 164 116H160ZM116 72C140.301 72 160 91.6995 160 116H164C164 89.4903 142.51 68 116 68V72ZM72 116C72 91.6995 91.6995 72 116 72V68C89.4903 68 68 89.4903 68 116H72ZM116 160C91.6995 160 72 140.301 72 116H68C68 142.51 89.4903 164 116 164V160Z" fill="black" mask="url(#path-1-inside-1_13_163)"/>
<path d="M117.493 6.30211L122.593 47.8782C122.667 48.4743 122.201 49 121.601 49H111.399C110.799 49 110.333 48.4743 110.407 47.8782L115.507 6.30212C115.651 5.13111 117.349 5.13118 117.493 6.30211Z" fill="#FFA800" stroke="black" stroke-width="2"/>
<path d="M194.624 39.4873L168.832 72.4929C168.462 72.9661 167.761 73.0089 167.337 72.5842L160.123 65.3705C159.698 64.9459 159.741 64.2453 160.214 63.8755L193.22 38.0836C194.149 37.3571 195.35 38.5577 194.624 39.4873Z" fill="#FFA800" stroke="black" stroke-width="2"/>
<path d="M225.698 117.493L184.122 122.593C183.526 122.667 183 122.201 183 121.601L183 111.399C183 110.799 183.526 110.333 184.122 110.407L225.698 115.507C226.869 115.651 226.869 117.349 225.698 117.493Z" fill="#FFA800" stroke="black" stroke-width="2"/>
<path d="M192.513 194.624L159.507 168.832C159.034 168.462 158.991 167.761 159.416 167.337L166.629 160.123C167.054 159.698 167.755 159.741 168.125 160.214L193.916 193.22C194.643 194.149 193.442 195.35 192.513 194.624Z" fill="#FFA800" stroke="black" stroke-width="2"/>
<path d="M114.507 225.698L109.407 184.122C109.333 183.526 109.799 183 110.399 183L120.601 183C121.201 183 121.667 183.526 121.593 184.122L116.493 225.698C116.349 226.869 114.651 226.869 114.507 225.698Z" fill="#FFA800" stroke="black" stroke-width="2"/>
<path d="M37.3765 192.513L63.1684 159.507C63.5382 159.034 64.2388 158.991 64.6635 159.416L71.8771 166.629C72.3018 167.054 72.259 167.755 71.7858 168.125L38.7802 193.916C37.8506 194.643 36.6501 193.442 37.3765 192.513Z" fill="#FFA800" stroke="black" stroke-width="2"/>
<path d="M6.30211 114.507L47.8782 109.407C48.4743 109.333 49 109.799 49 110.399L49 120.601C49 121.201 48.4743 121.667 47.8782 121.593L6.30212 116.493C5.13111 116.349 5.13118 114.651 6.30211 114.507Z" fill="#FFA800" stroke="black" stroke-width="2"/>
<path d="M39.4873 37.3765L72.4929 63.1684C72.9661 63.5382 73.0089 64.2388 72.5842 64.6635L65.3705 71.8771C64.9459 72.3018 64.2453 72.259 63.8755 71.7858L38.0836 38.7802C37.3571 37.8506 38.5577 36.6501 39.4873 37.3765Z" fill="#FFA800" stroke="black" stroke-width="2"/>
<path d="M164.466 2.89937L148.226 57.7971C148.058 58.3665 147.433 58.6645 146.885 58.4373L135.788 53.8411C135.24 53.6139 135.009 52.9615 135.292 52.4398L162.628 2.13823C163.201 1.08375 164.806 1.7486 164.466 2.89937Z" fill="#FFA800" stroke="black" stroke-width="2"/>
<path d="M230.245 70.2961L179.943 97.6316C179.421 97.9152 178.769 97.6843 178.542 97.1357L173.946 86.0395C173.718 85.4909 174.016 84.8663 174.586 84.6979L229.483 68.4585C230.634 68.1181 231.299 69.7231 230.245 70.2961Z" fill="#FFA800" stroke="black" stroke-width="2"/>
<path d="M229.101 164.466L174.203 148.226C173.634 148.058 173.336 147.433 173.563 146.885L178.159 135.788C178.386 135.24 179.039 135.009 179.56 135.292L229.862 162.628C230.916 163.201 230.252 164.806 229.101 164.466Z" fill="#FFA800" stroke="black" stroke-width="2"/>
<path d="M161.704 230.245L134.369 179.943C134.085 179.421 134.316 178.769 134.865 178.542L145.961 173.946C146.509 173.718 147.134 174.016 147.302 174.586L163.542 229.484C163.882 230.634 162.277 231.299 161.704 230.245Z" fill="#FFA800" stroke="black" stroke-width="2"/>
<path d="M67.5346 229.101L83.774 174.203C83.9425 173.634 84.567 173.336 85.1156 173.563L96.2118 178.159C96.7604 178.386 96.9913 179.039 96.7077 179.56L69.3722 229.862C68.7992 230.916 67.1942 230.252 67.5346 229.101Z" fill="#FFA800" stroke="black" stroke-width="2"/>
<path d="M1.75561 161.704L52.0571 134.369C52.5789 134.085 53.2313 134.316 53.4585 134.865L58.0547 145.961C58.2819 146.509 57.9838 147.134 57.4145 147.302L2.51676 163.542C1.36593 163.882 0.701186 162.277 1.75561 161.704Z" fill="#FFA800" stroke="black" stroke-width="2"/>
<path d="M2.89943 67.5347L57.7971 83.7741C58.3665 83.9425 58.6646 84.5671 58.4374 85.1157L53.8412 96.2118C53.6139 96.7604 52.9615 96.9913 52.4398 96.7078L2.1383 69.3723C1.08381 68.7992 1.74867 67.1943 2.89943 67.5347Z" fill="#FFA800" stroke="black" stroke-width="2"/>
<path d="M70.2961 1.75555L97.6316 52.0571C97.9152 52.5788 97.6843 53.2312 97.1357 53.4584L86.0395 58.0546C85.4909 58.2818 84.8663 57.9838 84.6979 57.4144L68.4585 2.5167C68.1181 1.36587 69.7231 0.701125 70.2961 1.75555Z" fill="#FFA800" stroke="black" stroke-width="2"/>
<mask id="path-19-inside-2_13_163" fill="white">
<path fill-rule="evenodd" clip-rule="evenodd" d="M116 150C134.778 150 150 134.778 150 116C150 97.2223 134.778 82 116 82C97.2223 82 82 97.2223 82 116C82 134.778 97.2223 150 116 150ZM116 135C126.493 135 135 126.493 135 116C135 105.507 126.493 97 116 97C105.507 97 97 105.507 97 116C97 126.493 105.507 135 116 135Z"/>
</mask>
<path fill-rule="evenodd" clip-rule="evenodd" d="M116 150C134.778 150 150 134.778 150 116C150 97.2223 134.778 82 116 82C97.2223 82 82 97.2223 82 116C82 134.778 97.2223 150 116 150ZM116 135C126.493 135 135 126.493 135 116C135 105.507 126.493 97 116 97C105.507 97 97 105.507 97 116C97 126.493 105.507 135 116 135Z" fill="#FFA800"/>
<path d="M148 116C148 133.673 133.673 148 116 148V152C135.882 152 152 135.882 152 116H148ZM116 84C133.673 84 148 98.3269 148 116H152C152 96.1177 135.882 80 116 80V84ZM84 116C84 98.3269 98.3269 84 116 84V80C96.1177 80 80 96.1177 80 116H84ZM116 148C98.3269 148 84 133.673 84 116H80C80 135.882 96.1177 152 116 152V148ZM133 116C133 125.389 125.389 133 116 133V137C127.598 137 137 127.598 137 116H133ZM116 99C125.389 99 133 106.611 133 116H137C137 104.402 127.598 95 116 95V99ZM99 116C99 106.611 106.611 99 116 99V95C104.402 95 95 104.402 95 116H99ZM116 133C106.611 133 99 125.389 99 116H95C95 127.598 104.402 137 116 137V133Z" fill="black" mask="url(#path-19-inside-2_13_163)"/>
<mask id="path-21-outside-3_13_163" maskUnits="userSpaceOnUse" x="248" y="26" width="355" height="206" fill="black">
<rect fill="white" x="248" y="26" width="355" height="206"/>
<path d="M323 99.096C317.304 99.096 314.456 98.456 314.456 97.176L312.44 58.68L300.728 97.656C300.472 98.424 298.296 98.808 294.2 98.808C290.104 98.808 287.992 98.456 287.864 97.752L275.768 58.296L274.424 96.6C274.36 97.56 273.144 98.232 270.776 98.616C268.408 98.936 266.424 99.096 264.824 99.096C263.288 99.096 261.784 99 260.312 98.808C257.24 98.36 255.736 97.56 255.8 96.408L258.008 34.008C258.008 32.472 261.912 31.704 269.72 31.704C272.024 31.704 274.84 31.896 278.168 32.28C281.496 32.6 283.352 33.272 283.736 34.296L294.488 64.536L303.896 34.2C304.472 32.536 308.888 31.704 317.144 31.704C319.512 31.704 322.328 31.896 325.592 32.28C328.92 32.6 330.584 33.208 330.584 34.104L333.368 97.08C333.368 97.784 332.12 98.296 329.624 98.616C327.128 98.936 324.92 99.096 323 99.096ZM346.542 93.336C342.574 88.92 340.59 82.808 340.59 75C340.59 67.192 342.574 61.08 346.542 56.664C350.574 52.248 355.982 50.04 362.766 50.04C369.55 50.04 374.926 52.248 378.894 56.664C382.862 61.08 384.846 67.192 384.846 75C384.846 82.808 382.862 88.92 378.894 93.336C374.926 97.752 369.55 99.96 362.766 99.96C355.982 99.96 350.574 97.752 346.542 93.336ZM362.766 66.072C359.182 66.072 357.39 69.016 357.39 74.904C357.39 80.792 359.182 83.736 362.766 83.736C366.414 83.736 368.238 80.792 368.238 74.904C368.238 69.016 366.414 66.072 362.766 66.072ZM411.697 98.424C411.697 98.872 409.393 99.096 404.785 99.096C398.385 98.904 395.185 98.552 395.185 98.04V66.936H392.689C391.025 66.936 389.937 65.528 389.425 62.712C389.297 61.88 389.233 61.048 389.233 60.216C389.233 58.232 389.617 56.248 390.385 54.264C391.537 51.448 393.329 50.04 395.761 50.04C398.193 50.04 400.369 50.616 402.289 51.768C404.209 52.92 405.489 54.072 406.129 55.224C410.161 51.768 414.961 50.04 420.529 50.04C426.097 50.04 430.129 51.544 432.625 54.552C435.121 57.56 436.369 62.488 436.369 69.336V98.136C436.369 98.904 433.617 99.288 428.113 99.288C422.673 99.288 419.953 98.904 419.953 98.136V70.392C419.953 67.192 418.833 65.592 416.593 65.592C415.953 65.592 415.057 65.88 413.905 66.456C412.753 66.968 412.017 67.352 411.697 67.608V98.424ZM468.796 32.376C468.796 31.416 471.324 30.936 476.38 30.936C478.108 30.936 480.092 31.064 482.332 31.32C484.636 31.512 485.788 31.8 485.788 32.184V82.776H489.148C490.748 82.776 491.804 84.216 492.316 87.096C492.444 87.928 492.508 89.08 492.508 90.552C492.508 91.96 492.06 93.688 491.164 95.736C489.884 98.552 487.836 99.96 485.02 99.96C482.908 99.96 481.02 99.544 479.356 98.712C477.756 97.88 476.668 97.016 476.092 96.12L475.228 94.872C471.708 98.264 467.292 99.96 461.98 99.96C456.668 99.96 452.124 97.752 448.348 93.336C444.572 88.92 442.684 82.776 442.684 74.904C442.684 66.968 444.668 60.856 448.636 56.568C452.604 52.216 457.564 50.04 463.516 50.04C465.244 50.04 467.004 50.232 468.796 50.616V32.376ZM465.628 65.4C462.044 65.4 460.252 68.632 460.252 75.096C460.252 78.36 460.764 80.728 461.788 82.2C462.812 83.608 463.932 84.312 465.148 84.312C466.428 84.312 467.644 83.768 468.796 82.68V66.36C467.708 65.72 466.652 65.4 465.628 65.4ZM502.917 93.336C498.949 88.92 496.965 82.808 496.965 75C496.965 67.192 498.949 61.08 502.917 56.664C506.949 52.248 512.357 50.04 519.141 50.04C525.925 50.04 531.301 52.248 535.269 56.664C539.237 61.08 541.221 67.192 541.221 75C541.221 82.808 539.237 88.92 535.269 93.336C531.301 97.752 525.925 99.96 519.141 99.96C512.357 99.96 506.949 97.752 502.917 93.336ZM519.141 66.072C515.557 66.072 513.765 69.016 513.765 74.904C513.765 80.792 515.557 83.736 519.141 83.736C522.789 83.736 524.613 80.792 524.613 74.904C524.613 69.016 522.789 66.072 519.141 66.072ZM252.056 143.048C252.056 142.728 253.432 142.44 256.184 142.184C259 141.864 261.304 141.704 263.096 141.704C270.2 141.704 273.912 142.632 274.232 144.488L282.488 186.728L290.264 144.488C290.648 142.632 294.616 141.704 302.168 141.704C304.024 141.704 306.36 141.832 309.176 142.088C311.992 142.344 313.4 142.632 313.4 142.952L296.408 206.504C296.152 207.528 294.264 208.2 290.744 208.52C285.304 209.096 280.344 209.224 275.864 208.904C271.448 208.52 269.112 207.88 268.856 206.984L252.056 143.048ZM319.542 203.336C315.574 198.92 313.59 192.808 313.59 185C313.59 177.192 315.574 171.08 319.542 166.664C323.574 162.248 328.982 160.04 335.766 160.04C342.55 160.04 347.926 162.248 351.894 166.664C355.862 171.08 357.846 177.192 357.846 185C357.846 192.808 355.862 198.92 351.894 203.336C347.926 207.752 342.55 209.96 335.766 209.96C328.982 209.96 323.574 207.752 319.542 203.336ZM335.766 176.072C332.182 176.072 330.39 179.016 330.39 184.904C330.39 190.792 332.182 193.736 335.766 193.736C339.414 193.736 341.238 190.792 341.238 184.904C341.238 179.016 339.414 176.072 335.766 176.072ZM361.273 161.48C361.273 160.776 364.185 160.424 370.009 160.424C375.897 160.424 378.937 160.744 379.129 161.384L386.041 184.04L392.665 161.192C392.921 160.68 394.905 160.424 398.617 160.424C407.129 160.424 411.193 160.84 410.809 161.672L388.249 225.896C388.185 226.28 386.425 226.472 382.969 226.472C379.577 226.472 376.409 226.344 373.465 226.088C370.521 225.896 369.113 225.64 369.241 225.32L377.593 205.16L361.273 161.48ZM422.243 174.152C420.451 170.952 419.555 168.36 419.555 166.376C419.555 164.328 420.099 163.016 421.187 162.44C424.835 160.84 429.827 160.04 436.163 160.04C442.563 160.04 447.075 161.544 449.699 164.552C452.323 167.496 453.635 171.88 453.635 177.704V192.872H456.899C457.987 192.872 458.819 193.512 459.395 194.792C460.035 196.072 460.355 197.832 460.355 200.072C460.355 202.312 459.779 204.52 458.627 206.696C457.539 208.872 456.035 209.96 454.115 209.96C450.659 209.96 447.875 209.032 445.763 207.176C444.803 206.408 444.067 205.48 443.555 204.392C440.611 208.104 436.035 209.96 429.827 209.96C425.155 209.96 421.219 208.296 418.019 204.968C414.819 201.64 413.219 197.704 413.219 193.16C413.219 182.728 419.459 177.512 431.939 177.512H437.219V176.552C437.219 174.888 436.931 173.832 436.355 173.384C435.843 172.872 434.595 172.616 432.611 172.616C430.179 172.616 426.723 173.128 422.243 174.152ZM429.923 191.816C429.923 193.224 430.307 194.312 431.075 195.08C431.843 195.784 432.803 196.136 433.955 196.136C435.171 196.136 436.259 195.656 437.219 194.696V187.304H434.531C431.459 187.304 429.923 188.808 429.923 191.816ZM483.453 209C477.245 209 472.445 207.016 469.053 203.048C465.661 199.016 463.965 193.096 463.965 185.288C463.965 177.416 466.173 171.272 470.589 166.856C475.069 162.376 480.989 160.136 488.349 160.136C495.773 160.136 501.885 161.768 506.685 165.032V212.84C506.685 217.576 504.765 221.192 500.925 223.688C497.085 226.248 492.157 227.528 486.141 227.528C480.125 227.528 474.749 226.76 470.013 225.224C469.373 223.688 469.053 222.312 469.053 221.096C469.053 217 469.725 213.992 471.069 212.072C475.357 213.928 479.933 214.856 484.797 214.856C488.317 214.856 490.077 213.608 490.077 211.112V208.232C487.325 208.744 485.117 209 483.453 209ZM487.869 175.784C483.581 175.784 481.437 179.016 481.437 185.48C481.437 189.512 482.269 192.136 483.933 193.352C485.021 194.184 486.109 194.6 487.197 194.6C488.285 194.6 489.245 194.504 490.077 194.312V176.072C489.309 175.88 488.573 175.784 487.869 175.784ZM551.577 206.408C547.545 208.776 542.361 209.96 536.025 209.96C529.689 209.96 524.345 207.816 519.993 203.528C515.641 199.176 513.465 193.192 513.465 185.576C513.465 177.896 515.545 171.72 519.705 167.048C523.929 162.376 529.241 160.04 535.641 160.04C542.041 160.04 546.969 161.672 550.425 164.936C553.945 168.2 555.705 172.168 555.705 176.84C555.705 187.208 549.753 192.392 537.849 192.392H531.225C531.225 194.312 531.737 195.656 532.761 196.424C533.849 197.128 535.417 197.48 537.465 197.48C541.945 197.48 546.201 196.456 550.233 194.408C550.297 194.344 550.585 194.792 551.097 195.752C552.633 198.504 553.401 200.84 553.401 202.76C553.401 204.616 552.793 205.832 551.577 206.408ZM539.577 178.664C539.577 175.976 538.265 174.632 535.641 174.632C534.425 174.632 533.369 175.016 532.473 175.784C531.641 176.488 531.225 177.544 531.225 178.952V181.928H536.409C538.521 181.928 539.577 180.84 539.577 178.664ZM563.992 191.72C569.176 194.856 573.272 196.424 576.28 196.424C578.2 196.424 579.16 195.752 579.16 194.408C579.16 193.448 577.496 192.2 574.168 190.664C566.168 187.4 562.168 182.056 562.168 174.632C562.168 169.896 563.896 166.28 567.352 163.784C570.808 161.288 574.936 160.04 579.736 160.04C584.6 160.04 588.696 160.552 592.024 161.576C595.416 162.6 597.112 163.944 597.112 165.608C597.112 167.016 596.408 168.872 595 171.176C593.656 173.48 592.728 174.728 592.216 174.92C589.464 173.384 586.488 172.616 583.288 172.616C581.56 172.616 580.696 173.224 580.696 174.44C580.696 175.208 581.016 175.88 581.656 176.456C582.36 176.968 583.608 177.64 585.4 178.472C587.192 179.24 588.664 179.944 589.816 180.584C591.032 181.224 592.376 182.12 593.848 183.272C596.92 185.704 598.456 188.872 598.456 192.776C598.456 197.896 596.76 202.056 593.368 205.256C589.976 208.392 584.856 209.96 578.008 209.96C573.464 209.96 569.336 209.192 565.624 207.656C561.912 206.12 560.056 204.008 560.056 201.32C560.056 199.528 560.472 197.64 561.304 195.656C562.2 193.672 563.096 192.36 563.992 191.72Z"/>
</mask>
<path d="M323 99.096C317.304 99.096 314.456 98.456 314.456 97.176L312.44 58.68L300.728 97.656C300.472 98.424 298.296 98.808 294.2 98.808C290.104 98.808 287.992 98.456 287.864 97.752L275.768 58.296L274.424 96.6C274.36 97.56 273.144 98.232 270.776 98.616C268.408 98.936 266.424 99.096 264.824 99.096C263.288 99.096 261.784 99 260.312 98.808C257.24 98.36 255.736 97.56 255.8 96.408L258.008 34.008C258.008 32.472 261.912 31.704 269.72 31.704C272.024 31.704 274.84 31.896 278.168 32.28C281.496 32.6 283.352 33.272 283.736 34.296L294.488 64.536L303.896 34.2C304.472 32.536 308.888 31.704 317.144 31.704C319.512 31.704 322.328 31.896 325.592 32.28C328.92 32.6 330.584 33.208 330.584 34.104L333.368 97.08C333.368 97.784 332.12 98.296 329.624 98.616C327.128 98.936 324.92 99.096 323 99.096ZM346.542 93.336C342.574 88.92 340.59 82.808 340.59 75C340.59 67.192 342.574 61.08 346.542 56.664C350.574 52.248 355.982 50.04 362.766 50.04C369.55 50.04 374.926 52.248 378.894 56.664C382.862 61.08 384.846 67.192 384.846 75C384.846 82.808 382.862 88.92 378.894 93.336C374.926 97.752 369.55 99.96 362.766 99.96C355.982 99.96 350.574 97.752 346.542 93.336ZM362.766 66.072C359.182 66.072 357.39 69.016 357.39 74.904C357.39 80.792 359.182 83.736 362.766 83.736C366.414 83.736 368.238 80.792 368.238 74.904C368.238 69.016 366.414 66.072 362.766 66.072ZM411.697 98.424C411.697 98.872 409.393 99.096 404.785 99.096C398.385 98.904 395.185 98.552 395.185 98.04V66.936H392.689C391.025 66.936 389.937 65.528 389.425 62.712C389.297 61.88 389.233 61.048 389.233 60.216C389.233 58.232 389.617 56.248 390.385 54.264C391.537 51.448 393.329 50.04 395.761 50.04C398.193 50.04 400.369 50.616 402.289 51.768C404.209 52.92 405.489 54.072 406.129 55.224C410.161 51.768 414.961 50.04 420.529 50.04C426.097 50.04 430.129 51.544 432.625 54.552C435.121 57.56 436.369 62.488 436.369 69.336V98.136C436.369 98.904 433.617 99.288 428.113 99.288C422.673 99.288 419.953 98.904 419.953 98.136V70.392C419.953 67.192 418.833 65.592 416.593 65.592C415.953 65.592 415.057 65.88 413.905 66.456C412.753 66.968 412.017 67.352 411.697 67.608V98.424ZM468.796 32.376C468.796 31.416 471.324 30.936 476.38 30.936C478.108 30.936 480.092 31.064 482.332 31.32C484.636 31.512 485.788 31.8 485.788 32.184V82.776H489.148C490.748 82.776 491.804 84.216 492.316 87.096C492.444 87.928 492.508 89.08 492.508 90.552C492.508 91.96 492.06 93.688 491.164 95.736C489.884 98.552 487.836 99.96 485.02 99.96C482.908 99.96 481.02 99.544 479.356 98.712C477.756 97.88 476.668 97.016 476.092 96.12L475.228 94.872C471.708 98.264 467.292 99.96 461.98 99.96C456.668 99.96 452.124 97.752 448.348 93.336C444.572 88.92 442.684 82.776 442.684 74.904C442.684 66.968 444.668 60.856 448.636 56.568C452.604 52.216 457.564 50.04 463.516 50.04C465.244 50.04 467.004 50.232 468.796 50.616V32.376ZM465.628 65.4C462.044 65.4 460.252 68.632 460.252 75.096C460.252 78.36 460.764 80.728 461.788 82.2C462.812 83.608 463.932 84.312 465.148 84.312C466.428 84.312 467.644 83.768 468.796 82.68V66.36C467.708 65.72 466.652 65.4 465.628 65.4ZM502.917 93.336C498.949 88.92 496.965 82.808 496.965 75C496.965 67.192 498.949 61.08 502.917 56.664C506.949 52.248 512.357 50.04 519.141 50.04C525.925 50.04 531.301 52.248 535.269 56.664C539.237 61.08 541.221 67.192 541.221 75C541.221 82.808 539.237 88.92 535.269 93.336C531.301 97.752 525.925 99.96 519.141 99.96C512.357 99.96 506.949 97.752 502.917 93.336ZM519.141 66.072C515.557 66.072 513.765 69.016 513.765 74.904C513.765 80.792 515.557 83.736 519.141 83.736C522.789 83.736 524.613 80.792 524.613 74.904C524.613 69.016 522.789 66.072 519.141 66.072ZM252.056 143.048C252.056 142.728 253.432 142.44 256.184 142.184C259 141.864 261.304 141.704 263.096 141.704C270.2 141.704 273.912 142.632 274.232 144.488L282.488 186.728L290.264 144.488C290.648 142.632 294.616 141.704 302.168 141.704C304.024 141.704 306.36 141.832 309.176 142.088C311.992 142.344 313.4 142.632 313.4 142.952L296.408 206.504C296.152 207.528 294.264 208.2 290.744 208.52C285.304 209.096 280.344 209.224 275.864 208.904C271.448 208.52 269.112 207.88 268.856 206.984L252.056 143.048ZM319.542 203.336C315.574 198.92 313.59 192.808 313.59 185C313.59 177.192 315.574 171.08 319.542 166.664C323.574 162.248 328.982 160.04 335.766 160.04C342.55 160.04 347.926 162.248 351.894 166.664C355.862 171.08 357.846 177.192 357.846 185C357.846 192.808 355.862 198.92 351.894 203.336C347.926 207.752 342.55 209.96 335.766 209.96C328.982 209.96 323.574 207.752 319.542 203.336ZM335.766 176.072C332.182 176.072 330.39 179.016 330.39 184.904C330.39 190.792 332.182 193.736 335.766 193.736C339.414 193.736 341.238 190.792 341.238 184.904C341.238 179.016 339.414 176.072 335.766 176.072ZM361.273 161.48C361.273 160.776 364.185 160.424 370.009 160.424C375.897 160.424 378.937 160.744 379.129 161.384L386.041 184.04L392.665 161.192C392.921 160.68 394.905 160.424 398.617 160.424C407.129 160.424 411.193 160.84 410.809 161.672L388.249 225.896C388.185 226.28 386.425 226.472 382.969 226.472C379.577 226.472 376.409 226.344 373.465 226.088C370.521 225.896 369.113 225.64 369.241 225.32L377.593 205.16L361.273 161.48ZM422.243 174.152C420.451 170.952 419.555 168.36 419.555 166.376C419.555 164.328 420.099 163.016 421.187 162.44C424.835 160.84 429.827 160.04 436.163 160.04C442.563 160.04 447.075 161.544 449.699 164.552C452.323 167.496 453.635 171.88 453.635 177.704V192.872H456.899C457.987 192.872 458.819 193.512 459.395 194.792C460.035 196.072 460.355 197.832 460.355 200.072C460.355 202.312 459.779 204.52 458.627 206.696C457.539 208.872 456.035 209.96 454.115 209.96C450.659 209.96 447.875 209.032 445.763 207.176C444.803 206.408 444.067 205.48 443.555 204.392C440.611 208.104 436.035 209.96 429.827 209.96C425.155 209.96 421.219 208.296 418.019 204.968C414.819 201.64 413.219 197.704 413.219 193.16C413.219 182.728 419.459 177.512 431.939 177.512H437.219V176.552C437.219 174.888 436.931 173.832 436.355 173.384C435.843 172.872 434.595 172.616 432.611 172.616C430.179 172.616 426.723 173.128 422.243 174.152ZM429.923 191.816C429.923 193.224 430.307 194.312 431.075 195.08C431.843 195.784 432.803 196.136 433.955 196.136C435.171 196.136 436.259 195.656 437.219 194.696V187.304H434.531C431.459 187.304 429.923 188.808 429.923 191.816ZM483.453 209C477.245 209 472.445 207.016 469.053 203.048C465.661 199.016 463.965 193.096 463.965 185.288C463.965 177.416 466.173 171.272 470.589 166.856C475.069 162.376 480.989 160.136 488.349 160.136C495.773 160.136 501.885 161.768 506.685 165.032V212.84C506.685 217.576 504.765 221.192 500.925 223.688C497.085 226.248 492.157 227.528 486.141 227.528C480.125 227.528 474.749 226.76 470.013 225.224C469.373 223.688 469.053 222.312 469.053 221.096C469.053 217 469.725 213.992 471.069 212.072C475.357 213.928 479.933 214.856 484.797 214.856C488.317 214.856 490.077 213.608 490.077 211.112V208.232C487.325 208.744 485.117 209 483.453 209ZM487.869 175.784C483.581 175.784 481.437 179.016 481.437 185.48C481.437 189.512 482.269 192.136 483.933 193.352C485.021 194.184 486.109 194.6 487.197 194.6C488.285 194.6 489.245 194.504 490.077 194.312V176.072C489.309 175.88 488.573 175.784 487.869 175.784ZM551.577 206.408C547.545 208.776 542.361 209.96 536.025 209.96C529.689 209.96 524.345 207.816 519.993 203.528C515.641 199.176 513.465 193.192 513.465 185.576C513.465 177.896 515.545 171.72 519.705 167.048C523.929 162.376 529.241 160.04 535.641 160.04C542.041 160.04 546.969 161.672 550.425 164.936C553.945 168.2 555.705 172.168 555.705 176.84C555.705 187.208 549.753 192.392 537.849 192.392H531.225C531.225 194.312 531.737 195.656 532.761 196.424C533.849 197.128 535.417 197.48 537.465 197.48C541.945 197.48 546.201 196.456 550.233 194.408C550.297 194.344 550.585 194.792 551.097 195.752C552.633 198.504 553.401 200.84 553.401 202.76C553.401 204.616 552.793 205.832 551.577 206.408ZM539.577 178.664C539.577 175.976 538.265 174.632 535.641 174.632C534.425 174.632 533.369 175.016 532.473 175.784C531.641 176.488 531.225 177.544 531.225 178.952V181.928H536.409C538.521 181.928 539.577 180.84 539.577 178.664ZM563.992 191.72C569.176 194.856 573.272 196.424 576.28 196.424C578.2 196.424 579.16 195.752 579.16 194.408C579.16 193.448 577.496 192.2 574.168 190.664C566.168 187.4 562.168 182.056 562.168 174.632C562.168 169.896 563.896 166.28 567.352 163.784C570.808 161.288 574.936 160.04 579.736 160.04C584.6 160.04 588.696 160.552 592.024 161.576C595.416 162.6 597.112 163.944 597.112 165.608C597.112 167.016 596.408 168.872 595 171.176C593.656 173.48 592.728 174.728 592.216 174.92C589.464 173.384 586.488 172.616 583.288 172.616C581.56 172.616 580.696 173.224 580.696 174.44C580.696 175.208 581.016 175.88 581.656 176.456C582.36 176.968 583.608 177.64 585.4 178.472C587.192 179.24 588.664 179.944 589.816 180.584C591.032 181.224 592.376 182.12 593.848 183.272C596.92 185.704 598.456 188.872 598.456 192.776C598.456 197.896 596.76 202.056 593.368 205.256C589.976 208.392 584.856 209.96 578.008 209.96C573.464 209.96 569.336 209.192 565.624 207.656C561.912 206.12 560.056 204.008 560.056 201.32C560.056 199.528 560.472 197.64 561.304 195.656C562.2 193.672 563.096 192.36 563.992 191.72Z" fill="white"/>
<path d="M314.456 97.176H318.456C318.456 97.1062 318.454 97.0365 318.451 96.9668L314.456 97.176ZM312.44 58.68L316.435 58.4708C316.333 56.5286 314.849 54.9411 312.918 54.7087C310.987 54.4762 309.169 55.6663 308.609 57.5289L312.44 58.68ZM300.728 97.656L304.523 98.9209C304.535 98.8832 304.547 98.8452 304.559 98.8071L300.728 97.656ZM287.864 97.752L291.799 97.0365C291.771 96.8821 291.734 96.7296 291.688 96.5796L287.864 97.752ZM275.768 58.296L279.592 57.1236C279.02 55.2557 277.182 54.0748 275.245 54.3304C273.308 54.586 271.839 56.2033 271.77 58.1557L275.768 58.296ZM274.424 96.6L278.415 96.8661C278.418 96.8242 278.42 96.7822 278.422 96.7403L274.424 96.6ZM270.776 98.616L271.312 102.58C271.347 102.575 271.381 102.57 271.416 102.564L270.776 98.616ZM260.312 98.808L259.735 102.766C259.755 102.769 259.775 102.772 259.795 102.774L260.312 98.808ZM255.8 96.408L259.794 96.6299C259.795 96.6031 259.797 96.5763 259.797 96.5494L255.8 96.408ZM258.008 34.008L262.005 34.1494C262.007 34.1023 262.008 34.0552 262.008 34.008H258.008ZM278.168 32.28L277.71 36.2536C277.735 36.2565 277.76 36.2592 277.785 36.2616L278.168 32.28ZM283.736 34.296L287.505 32.956C287.497 32.9344 287.489 32.9129 287.481 32.8915L283.736 34.296ZM294.488 64.536L290.719 65.876C291.296 67.4991 292.848 68.5704 294.57 68.5352C296.292 68.4999 297.798 67.3661 298.308 65.7208L294.488 64.536ZM303.896 34.2L300.116 32.8916C300.102 32.9325 300.088 32.9737 300.076 33.0152L303.896 34.2ZM325.592 32.28L325.125 36.2526C325.153 36.2559 325.181 36.2589 325.209 36.2616L325.592 32.28ZM330.584 34.104H326.584C326.584 34.1629 326.585 34.2218 326.588 34.2807L330.584 34.104ZM333.368 97.08H337.368C337.368 97.0211 337.367 96.9622 337.364 96.9033L333.368 97.08ZM329.624 98.616L330.133 102.584L330.133 102.584L329.624 98.616ZM323 95.096C320.224 95.096 318.448 94.9334 317.469 94.7133C316.951 94.5969 316.978 94.5325 317.226 94.6993C317.557 94.9225 318.456 95.7325 318.456 97.176H310.456C310.456 99.2595 311.711 100.629 312.754 101.333C313.714 101.98 314.809 102.315 315.715 102.519C317.584 102.939 320.08 103.096 323 103.096V95.096ZM318.451 96.9668L316.435 58.4708L308.445 58.8892L310.461 97.3852L318.451 96.9668ZM308.609 57.5289L296.897 96.5049L304.559 98.8071L316.271 59.8311L308.609 57.5289ZM296.933 96.3911C297.384 95.0401 298.404 94.5734 298.464 94.545C298.622 94.4698 298.595 94.5127 298.209 94.5809C297.468 94.7116 296.176 94.808 294.2 94.808V102.808C296.32 102.808 298.164 102.712 299.599 102.459C300.301 102.335 301.122 102.138 301.888 101.775C302.556 101.459 303.944 100.656 304.523 98.9209L296.933 96.3911ZM294.2 94.808C292.212 94.808 290.925 94.719 290.202 94.5984C289.814 94.5338 289.829 94.4975 290.038 94.5959C290.152 94.6497 290.468 94.8107 290.815 95.1529C291.189 95.5216 291.638 96.1482 291.799 97.0365L283.929 98.4675C284.318 100.612 286.016 101.545 286.626 101.832C287.395 102.195 288.218 102.378 288.886 102.49C290.275 102.721 292.092 102.808 294.2 102.808V94.808ZM291.688 96.5796L279.592 57.1236L271.944 59.4684L284.04 98.9244L291.688 96.5796ZM271.77 58.1557L270.426 96.4597L278.422 96.7403L279.766 58.4363L271.77 58.1557ZM270.433 96.3339C270.475 95.7085 270.717 95.1744 271.013 94.7974C271.275 94.4624 271.515 94.3312 271.529 94.323C271.55 94.3114 271.463 94.3612 271.205 94.4371C270.956 94.5106 270.606 94.5913 270.136 94.6676L271.416 102.564C272.774 102.344 274.198 101.988 275.399 101.325C276.625 100.647 278.256 99.2481 278.415 96.8661L270.433 96.3339ZM270.24 94.652C267.972 94.9585 266.181 95.096 264.824 95.096V103.096C266.667 103.096 268.844 102.913 271.312 102.58L270.24 94.652ZM264.824 95.096C263.455 95.096 262.124 95.0105 260.829 94.8416L259.795 102.774C261.444 102.99 263.121 103.096 264.824 103.096V95.096ZM260.889 94.8499C260.236 94.7545 259.731 94.6497 259.354 94.5469C258.966 94.4411 258.792 94.3586 258.758 94.3405C258.71 94.3149 258.977 94.4407 259.265 94.8314C259.418 95.0391 259.569 95.3116 259.672 95.6451C259.776 95.9814 259.811 96.3181 259.794 96.6299L251.806 96.1861C251.649 99.016 253.621 100.669 255.002 101.403C256.366 102.129 258.054 102.521 259.735 102.766L260.889 94.8499ZM259.797 96.5494L262.005 34.1494L254.011 33.8665L251.803 96.2665L259.797 96.5494ZM262.008 34.008C262.008 35.645 260.872 36.3864 260.773 36.4448C260.682 36.4983 260.894 36.365 261.708 36.2048C263.266 35.8982 265.878 35.704 269.72 35.704V27.704C265.754 27.704 262.51 27.8938 260.164 28.3552C259.026 28.579 257.774 28.9257 256.707 29.5552C255.632 30.1896 254.008 31.603 254.008 34.008H262.008ZM269.72 35.704C271.819 35.704 274.472 35.8801 277.71 36.2536L278.626 28.3064C275.208 27.9119 272.229 27.704 269.72 27.704V35.704ZM277.785 36.2616C279.311 36.4084 280.225 36.6153 280.694 36.7851C280.921 36.8671 280.898 36.8895 280.757 36.783C280.604 36.6665 280.226 36.3291 279.991 35.7005L287.481 32.8915C286.646 30.6641 284.618 29.6976 283.418 29.2629C282.031 28.7607 280.353 28.4716 278.551 28.2984L277.785 36.2616ZM279.967 35.636L290.719 65.876L298.257 63.196L287.505 32.956L279.967 35.636ZM298.308 65.7208L307.716 35.3848L300.076 33.0152L290.668 63.3512L298.308 65.7208ZM307.676 35.5084C307.325 36.5231 306.621 36.7935 306.837 36.6857C306.991 36.6088 307.448 36.4346 308.381 36.2588C310.221 35.9121 313.095 35.704 317.144 35.704V27.704C312.937 27.704 309.475 27.9119 306.899 28.3972C305.624 28.6374 304.353 28.9832 303.259 29.5303C302.227 30.0465 300.755 31.0449 300.116 32.8916L307.676 35.5084ZM317.144 35.704C319.309 35.704 321.961 35.8804 325.125 36.2526L326.059 28.3074C322.695 27.9116 319.715 27.704 317.144 27.704V35.704ZM325.209 36.2616C326.777 36.4124 327.618 36.607 327.963 36.7331C328.144 36.7992 327.92 36.7518 327.59 36.4535C327.405 36.2862 327.147 36.0042 326.935 35.5842C326.714 35.1456 326.584 34.6375 326.584 34.104H334.584C334.584 32.4759 333.775 31.2601 332.954 30.5185C332.208 29.8442 331.36 29.4568 330.709 29.2189C329.39 28.737 327.735 28.4676 325.975 28.2984L325.209 36.2616ZM326.588 34.2807L329.372 97.2567L337.364 96.9033L334.58 33.9273L326.588 34.2807ZM329.368 97.08C329.368 95.9319 329.921 95.1177 330.343 94.7071C330.698 94.3605 330.984 94.2626 330.914 94.2913C330.781 94.3458 330.261 94.5016 329.115 94.6485L330.133 102.584C331.483 102.41 332.835 102.15 333.95 101.693C334.504 101.465 335.258 101.088 335.925 100.437C336.659 99.7223 337.368 98.5801 337.368 97.08H329.368ZM329.115 94.6485C326.739 94.9531 324.707 95.096 323 95.096V103.096C325.133 103.096 327.517 102.919 330.133 102.584L329.115 94.6485ZM346.542 93.336L343.566 96.0095C343.574 96.0174 343.581 96.0252 343.588 96.0331L346.542 93.336ZM346.542 56.664L343.588 53.9669C343.581 53.9748 343.574 53.9826 343.566 53.9905L346.542 56.664ZM378.894 56.664L375.918 59.3375L375.918 59.3375L378.894 56.664ZM378.894 93.336L375.918 90.6625L375.918 90.6625L378.894 93.336ZM349.517 90.6625C346.394 87.187 344.59 82.1388 344.59 75H336.59C336.59 83.4772 338.753 90.653 343.566 96.0095L349.517 90.6625ZM344.59 75C344.59 67.8612 346.394 62.813 349.517 59.3375L343.566 53.9905C338.753 59.347 336.59 66.5228 336.59 75H344.59ZM349.496 59.3611C352.664 55.8909 356.939 54.04 362.766 54.04V46.04C355.025 46.04 348.483 48.6051 343.588 53.9669L349.496 59.3611ZM362.766 54.04C368.594 54.04 372.821 55.8904 375.918 59.3375L381.869 53.9905C377.03 48.6056 370.506 46.04 362.766 46.04V54.04ZM375.918 59.3375C379.041 62.813 380.846 67.8612 380.846 75H388.846C388.846 66.5228 386.682 59.347 381.869 53.9905L375.918 59.3375ZM380.846 75C380.846 82.1388 379.041 87.187 375.918 90.6625L381.869 96.0095C386.682 90.653 388.846 83.4772 388.846 75H380.846ZM375.918 90.6625C372.821 94.1096 368.594 95.96 362.766 95.96V103.96C370.506 103.96 377.03 101.394 381.869 96.0095L375.918 90.6625ZM362.766 95.96C356.939 95.96 352.664 94.1091 349.496 90.6389L343.588 96.0331C348.483 101.395 355.025 103.96 362.766 103.96V95.96ZM362.766 62.072C359.646 62.072 356.973 63.4789 355.317 66.2002C353.856 68.5998 353.39 71.6845 353.39 74.904H361.39C361.39 72.2355 361.819 70.9042 362.151 70.3598C362.22 70.2456 362.273 70.1875 362.298 70.1627C362.321 70.1397 362.332 70.1339 362.335 70.1324C362.338 70.1305 362.361 70.1179 362.42 70.1042C362.481 70.0899 362.591 70.072 362.766 70.072V62.072ZM353.39 74.904C353.39 78.1235 353.856 81.2082 355.317 83.6078C356.973 86.3291 359.646 87.736 362.766 87.736V79.736C362.591 79.736 362.481 79.7181 362.42 79.7038C362.361 79.6901 362.338 79.6775 362.335 79.6756C362.332 79.6741 362.321 79.6683 362.298 79.6453C362.273 79.6205 362.22 79.5624 362.151 79.4482C361.819 78.9038 361.39 77.5725 361.39 74.904H353.39ZM362.766 87.736C365.885 87.736 368.583 86.3579 370.27 83.6347C371.761 81.2279 372.238 78.1313 372.238 74.904H364.238C364.238 77.5647 363.802 78.8841 363.469 79.4213C363.399 79.5345 363.345 79.5935 363.318 79.6206C363.291 79.6459 363.275 79.6557 363.265 79.6615C363.257 79.6656 363.132 79.736 362.766 79.736V87.736ZM372.238 74.904C372.238 71.6767 371.761 68.5801 370.27 66.1733C368.583 63.4501 365.885 62.072 362.766 62.072V70.072C363.132 70.072 363.257 70.1424 363.265 70.1465C363.275 70.1523 363.291 70.162 363.318 70.1874C363.345 70.2145 363.399 70.2735 363.469 70.3867C363.802 70.9239 364.238 72.2433 364.238 74.904H372.238ZM404.785 99.096L404.665 103.094C404.705 103.095 404.745 103.096 404.785 103.096V99.096ZM395.185 66.936H399.185C399.185 64.7269 397.394 62.936 395.185 62.936V66.936ZM389.425 62.712L385.471 63.3202C385.477 63.3561 385.483 63.3919 385.489 63.4275L389.425 62.712ZM390.385 54.264L386.682 52.7495C386.673 52.7729 386.663 52.7964 386.654 52.82L390.385 54.264ZM402.289 51.768L400.231 55.198L400.231 55.198L402.289 51.768ZM406.129 55.224L402.632 57.1666C403.215 58.2167 404.24 58.949 405.422 59.1611C406.604 59.3733 407.82 59.0428 408.732 58.261L406.129 55.224ZM413.905 66.456L415.529 70.1112C415.584 70.0866 415.639 70.0608 415.693 70.0337L413.905 66.456ZM411.697 67.608L409.198 64.4845C408.249 65.2436 407.697 66.3929 407.697 67.608H411.697ZM407.697 98.424C407.697 96.5417 408.947 95.5408 409.338 95.2746C409.775 94.9773 410.132 94.8816 410.145 94.878C410.224 94.8547 410.093 94.8971 409.581 94.9468C408.629 95.0393 407.059 95.096 404.785 95.096V103.096C407.118 103.096 409.004 103.041 410.356 102.909C410.996 102.847 411.729 102.749 412.385 102.558C412.685 102.47 413.258 102.284 413.839 101.888C414.374 101.524 415.697 100.418 415.697 98.424H407.697ZM404.904 95.0978C401.729 95.0025 399.458 94.87 398.022 94.712C397.274 94.6297 396.921 94.5577 396.827 94.5323C396.748 94.511 397.005 94.5661 397.367 94.7794C397.5 94.8579 399.185 95.8311 399.185 98.04H391.185C391.185 100.377 392.969 101.473 393.302 101.67C393.864 102.001 394.421 102.169 394.742 102.256C395.448 102.446 396.295 102.57 397.147 102.664C398.911 102.858 401.44 102.997 404.665 103.094L404.904 95.0978ZM399.185 98.04V66.936H391.185V98.04H399.185ZM395.185 62.936H392.689V70.936H395.185V62.936ZM392.689 62.936C392.856 62.936 393.108 62.9767 393.37 63.111C393.625 63.2411 393.756 63.3905 393.79 63.4342C393.814 63.4658 393.753 63.396 393.657 63.1431C393.562 62.8932 393.455 62.5213 393.36 61.9965L385.489 63.4275C385.797 65.1234 386.355 66.8972 387.459 68.3258C388.7 69.9314 390.522 70.936 392.689 70.936V62.936ZM393.378 62.1038C393.281 61.4707 393.233 60.842 393.233 60.216H385.233C385.233 61.254 385.312 62.2893 385.471 63.3202L393.378 62.1038ZM393.233 60.216C393.233 58.7606 393.512 57.265 394.115 55.708L386.654 52.82C385.721 55.231 385.233 57.7034 385.233 60.216H393.233ZM394.087 55.7785C394.485 54.8043 394.865 54.3976 395.064 54.2413C395.206 54.1295 395.376 54.04 395.761 54.04V46.04C393.713 46.04 391.771 46.6545 390.121 47.9507C388.528 49.2024 387.436 50.9077 386.682 52.7495L394.087 55.7785ZM395.761 54.04C397.532 54.04 398.985 54.4509 400.231 55.198L404.346 48.338C401.752 46.7811 398.853 46.04 395.761 46.04V54.04ZM400.231 55.198C401.919 56.2109 402.494 56.9187 402.632 57.1666L409.625 53.2814C408.483 51.2253 406.498 49.6291 404.346 48.338L400.231 55.198ZM408.732 58.261C412.001 55.4585 415.865 54.04 420.529 54.04V46.04C414.056 46.04 408.32 48.0775 403.525 52.187L408.732 58.261ZM420.529 54.04C425.432 54.04 428.092 55.3532 429.546 57.1063L435.703 51.9977C432.165 47.7347 426.761 46.04 420.529 46.04V54.04ZM429.546 57.1063C431.14 59.0266 432.369 62.7886 432.369 69.336H440.369C440.369 62.1874 439.101 56.0934 435.703 51.9977L429.546 57.1063ZM432.369 69.336V98.136H440.369V69.336H432.369ZM432.369 98.136C432.369 96.8974 432.966 96.012 433.445 95.5445C433.862 95.1366 434.243 94.9773 434.308 94.9502C434.446 94.8925 434.338 94.9566 433.752 95.0384C432.66 95.1907 430.822 95.288 428.113 95.288V103.288C430.907 103.288 433.197 103.193 434.857 102.962C435.647 102.851 436.571 102.676 437.397 102.33C437.806 102.159 438.445 101.843 439.034 101.268C439.685 100.632 440.369 99.5666 440.369 98.136H432.369ZM428.113 95.288C425.436 95.288 423.624 95.1907 422.552 95.0393C421.975 94.9579 421.877 94.895 422.022 94.9567C422.092 94.9862 422.475 95.1489 422.892 95.5609C423.37 96.0334 423.953 96.9142 423.953 98.136H415.953C415.953 99.5498 416.62 100.611 417.268 101.251C417.855 101.831 418.493 102.15 418.903 102.323C419.728 102.673 420.65 102.85 421.433 102.961C423.081 103.193 425.349 103.288 428.113 103.288V95.288ZM423.953 98.136V70.392H415.953V98.136H423.953ZM423.953 70.392C423.953 68.448 423.634 66.2768 422.389 64.4981C420.962 62.4594 418.796 61.592 416.593 61.592V69.592C416.677 69.592 416.558 69.6061 416.343 69.5034C416.107 69.3912 415.932 69.2231 415.836 69.0858C415.757 68.9742 415.794 68.9727 415.847 69.2009C415.901 69.4299 415.953 69.8125 415.953 70.392H423.953ZM416.593 61.592C414.971 61.592 413.37 62.2509 412.116 62.8783L415.693 70.0337C416.149 69.8061 416.466 69.6798 416.665 69.6161C416.885 69.5453 416.834 69.592 416.593 69.592V61.592ZM412.28 62.8008C411.219 63.2723 409.99 63.8504 409.198 64.4845L414.195 70.7315C414.091 70.8151 414.038 70.8431 414.088 70.8128C414.127 70.7891 414.207 70.7433 414.339 70.6743C414.605 70.5353 414.995 70.3487 415.529 70.1112L412.28 62.8008ZM407.697 67.608V98.424H415.697V67.608H407.697ZM482.332 31.32L481.877 35.2941C481.918 35.2988 481.959 35.3028 481.999 35.3062L482.332 31.32ZM485.788 82.776H481.788C481.788 84.9851 483.578 86.776 485.788 86.776V82.776ZM492.316 87.096L496.269 86.4878C496.264 86.4571 496.259 86.4264 496.254 86.3959L492.316 87.096ZM491.164 95.736L494.805 97.3912C494.813 97.374 494.821 97.3566 494.828 97.3393L491.164 95.736ZM479.356 98.712L477.51 102.261C477.529 102.271 477.548 102.28 477.567 102.29L479.356 98.712ZM476.092 96.12L479.456 93.957C479.432 93.9186 479.406 93.8807 479.38 93.8432L476.092 96.12ZM475.228 94.872L478.516 92.5952C477.849 91.6306 476.791 91.0078 475.624 90.8917C474.456 90.7755 473.297 91.1777 472.452 91.9917L475.228 94.872ZM448.348 93.336L445.307 95.9355L445.307 95.9355L448.348 93.336ZM448.636 56.568L451.571 59.2848C451.578 59.2775 451.585 59.2703 451.591 59.263L448.636 56.568ZM468.796 50.616L467.957 54.5272C469.139 54.7803 470.371 54.4861 471.31 53.7267C472.25 52.9672 472.796 51.824 472.796 50.616H468.796ZM461.788 82.2L458.504 84.4843C458.52 84.5072 458.536 84.53 458.553 84.5527L461.788 82.2ZM468.796 82.68L471.542 85.5881C472.342 84.8324 472.796 83.7805 472.796 82.68H468.796ZM468.796 66.36H472.796C472.796 64.9425 472.045 63.6309 470.824 62.9123L468.796 66.36ZM472.796 32.376C472.796 34.2283 471.484 35.0881 471.249 35.2217C470.995 35.3665 470.96 35.3166 471.438 35.2258C472.321 35.0581 473.911 34.936 476.38 34.936V26.936C473.792 26.936 471.59 27.0539 469.945 27.3662C469.159 27.5154 468.176 27.7654 467.29 28.2703C466.423 28.7639 464.796 30.0437 464.796 32.376H472.796ZM476.38 34.936C477.918 34.936 479.745 35.0505 481.877 35.2941L482.786 27.3459C480.438 27.0775 478.297 26.936 476.38 26.936V34.936ZM481.999 35.3062C483.097 35.3977 483.7 35.4973 483.953 35.5606C484.113 35.6004 483.899 35.5689 483.556 35.3691C483.377 35.2644 482.986 35.0131 482.61 34.5433C482.197 34.0265 481.788 33.2167 481.788 32.184H489.788C489.788 29.8514 488.04 28.7229 487.587 28.4589C486.956 28.0911 486.31 27.9036 485.894 27.7994C484.995 27.5747 483.87 27.4343 482.664 27.3338L481.999 35.3062ZM481.788 32.184V82.776H489.788V32.184H481.788ZM485.788 86.776H489.148V78.776H485.788V86.776ZM489.148 86.776C488.922 86.776 488.627 86.7186 488.339 86.5624C488.066 86.4142 487.936 86.2519 487.914 86.2215C487.899 86.2018 487.968 86.2913 488.07 86.5707C488.169 86.8457 488.279 87.2445 488.377 87.7961L496.254 86.3959C495.951 84.6928 495.415 82.9218 494.365 81.4905C493.185 79.8807 491.383 78.776 489.148 78.776V86.776ZM488.362 87.7042C488.444 88.2399 488.508 89.1571 488.508 90.552H496.508C496.508 89.0029 496.443 87.6161 496.269 86.4878L488.362 87.7042ZM488.508 90.552C488.508 91.179 488.289 92.3265 487.499 94.1327L494.828 97.3393C495.83 95.0495 496.508 92.741 496.508 90.552H488.508ZM487.522 94.0808C487.11 94.9878 486.696 95.4054 486.401 95.6078C486.131 95.794 485.73 95.96 485.02 95.96V103.96C487.125 103.96 489.156 103.422 490.934 102.2C492.687 100.995 493.937 99.3002 494.805 97.3912L487.522 94.0808ZM485.02 95.96C483.444 95.96 482.182 95.6531 481.144 95.1343L477.567 102.29C479.857 103.435 482.371 103.96 485.02 103.96V95.96ZM481.201 95.1631C480.565 94.8323 480.122 94.5417 479.827 94.3076C479.528 94.07 479.447 93.943 479.456 93.957L472.727 98.283C473.857 100.042 475.669 101.303 477.51 102.261L481.201 95.1631ZM479.38 93.8432L478.516 92.5952L471.939 97.1488L472.803 98.3968L479.38 93.8432ZM472.452 91.9917C469.745 94.5999 466.355 95.96 461.98 95.96V103.96C468.228 103.96 473.67 101.928 478.003 97.7523L472.452 91.9917ZM461.98 95.96C457.955 95.96 454.484 94.3579 451.388 90.7365L445.307 95.9355C449.763 101.146 455.38 103.96 461.98 103.96V95.96ZM451.388 90.7365C448.421 87.2669 446.684 82.1624 446.684 74.904H438.684C438.684 83.3896 440.722 90.5731 445.307 95.9355L451.388 90.7365ZM446.684 74.904C446.684 67.6091 448.501 62.6026 451.571 59.2848L445.7 53.8512C440.834 59.1094 438.684 66.3269 438.684 74.904H446.684ZM451.591 59.263C454.792 55.7523 458.675 54.04 463.516 54.04V46.04C456.452 46.04 450.415 48.6797 445.68 53.873L451.591 59.263ZM463.516 54.04C464.945 54.04 466.424 54.1987 467.957 54.5272L469.634 46.7048C467.583 46.2653 465.542 46.04 463.516 46.04V54.04ZM472.796 50.616V32.376H464.796V50.616H472.796ZM465.628 61.4C464.111 61.4 462.594 61.7487 461.215 62.5778C459.842 63.4031 458.824 64.5728 458.097 65.8844C456.71 68.3865 456.252 71.6254 456.252 75.096H464.252C464.252 72.1026 464.689 70.4934 465.094 69.7636C465.263 69.4592 465.365 69.4169 465.336 69.4342C465.301 69.4553 465.352 69.4 465.628 69.4V61.4ZM456.252 75.096C456.252 78.5953 456.766 81.9855 458.504 84.4843L465.071 79.9157C464.761 79.4705 464.252 78.1247 464.252 75.096H456.252ZM458.553 84.5527C459.984 86.5212 462.161 88.312 465.148 88.312V80.312C465.236 80.312 465.327 80.3257 465.408 80.3501C465.487 80.3739 465.526 80.3987 465.524 80.3975C465.508 80.3873 465.325 80.2628 465.022 79.8473L458.553 84.5527ZM465.148 88.312C467.678 88.312 469.833 87.202 471.542 85.5881L466.049 79.7719C465.454 80.334 465.177 80.312 465.148 80.312V88.312ZM472.796 82.68V66.36H464.796V82.68H472.796ZM470.824 62.9123C469.263 61.9943 467.513 61.4 465.628 61.4V69.4C465.79 69.4 466.152 69.4457 466.767 69.8077L470.824 62.9123ZM502.917 93.336L499.941 96.0095C499.949 96.0174 499.956 96.0252 499.963 96.0331L502.917 93.336ZM502.917 56.664L499.963 53.9669C499.956 53.9748 499.949 53.9826 499.941 53.9905L502.917 56.664ZM535.269 56.664L532.293 59.3375L532.293 59.3375L535.269 56.664ZM535.269 93.336L532.293 90.6625L532.293 90.6625L535.269 93.336ZM505.892 90.6625C502.769 87.187 500.965 82.1388 500.965 75H492.965C492.965 83.4772 495.128 90.653 499.941 96.0095L505.892 90.6625ZM500.965 75C500.965 67.8612 502.769 62.813 505.892 59.3375L499.941 53.9905C495.128 59.347 492.965 66.5228 492.965 75H500.965ZM505.871 59.3611C509.039 55.8909 513.314 54.04 519.141 54.04V46.04C511.4 46.04 504.858 48.6051 499.963 53.9669L505.871 59.3611ZM519.141 54.04C524.969 54.04 529.196 55.8904 532.293 59.3375L538.244 53.9905C533.405 48.6056 526.881 46.04 519.141 46.04V54.04ZM532.293 59.3375C535.416 62.813 537.221 67.8612 537.221 75H545.221C545.221 66.5228 543.057 59.347 538.244 53.9905L532.293 59.3375ZM537.221 75C537.221 82.1388 535.416 87.187 532.293 90.6625L538.244 96.0095C543.057 90.653 545.221 83.4772 545.221 75H537.221ZM532.293 90.6625C529.196 94.1096 524.969 95.96 519.141 95.96V103.96C526.881 103.96 533.405 101.394 538.244 96.0095L532.293 90.6625ZM519.141 95.96C513.314 95.96 509.039 94.1091 505.871 90.6389L499.963 96.0331C504.858 101.395 511.4 103.96 519.141 103.96V95.96ZM519.141 62.072C516.021 62.072 513.348 63.4789 511.692 66.2002C510.231 68.5998 509.765 71.6845 509.765 74.904H517.765C517.765 72.2355 518.194 70.9042 518.526 70.3598C518.595 70.2456 518.648 70.1875 518.673 70.1627C518.696 70.1397 518.707 70.1339 518.71 70.1324C518.713 70.1305 518.736 70.1179 518.795 70.1042C518.856 70.0899 518.966 70.072 519.141 70.072V62.072ZM509.765 74.904C509.765 78.1235 510.231 81.2082 511.692 83.6078C513.348 86.3291 516.021 87.736 519.141 87.736V79.736C518.966 79.736 518.856 79.7181 518.795 79.7038C518.736 79.6901 518.713 79.6775 518.71 79.6756C518.707 79.6741 518.696 79.6683 518.673 79.6453C518.648 79.6205 518.595 79.5624 518.526 79.4482C518.194 78.9038 517.765 77.5725 517.765 74.904H509.765ZM519.141 87.736C522.26 87.736 524.958 86.3579 526.645 83.6347C528.136 81.2279 528.613 78.1313 528.613 74.904H520.613C520.613 77.5647 520.177 78.8841 519.844 79.4213C519.774 79.5345 519.72 79.5935 519.693 79.6206C519.666 79.6459 519.65 79.6557 519.64 79.6615C519.632 79.6656 519.507 79.736 519.141 79.736V87.736ZM528.613 74.904C528.613 71.6767 528.136 68.5801 526.645 66.1733C524.958 63.4501 522.26 62.072 519.141 62.072V70.072C519.507 70.072 519.632 70.1424 519.64 70.1465C519.65 70.1523 519.666 70.162 519.693 70.1874C519.72 70.2145 519.774 70.2735 519.844 70.3867C520.177 70.9239 520.613 72.2433 520.613 74.904H528.613ZM252.056 143.048H248.056C248.056 143.391 248.1 143.733 248.187 144.065L252.056 143.048ZM256.184 142.184L256.554 146.167C256.582 146.164 256.609 146.161 256.636 146.158L256.184 142.184ZM274.232 144.488L270.29 145.168C270.295 145.197 270.301 145.226 270.306 145.255L274.232 144.488ZM282.488 186.728L278.562 187.495C278.931 189.381 280.588 190.738 282.51 190.728C284.431 190.717 286.074 189.342 286.422 187.452L282.488 186.728ZM290.264 144.488L286.347 143.678C286.341 143.706 286.335 143.735 286.33 143.764L290.264 144.488ZM309.176 142.088L308.814 146.072L308.814 146.072L309.176 142.088ZM313.4 142.952L317.264 143.985C317.354 143.648 317.4 143.301 317.4 142.952H313.4ZM296.408 206.504L292.544 205.471C292.538 205.492 292.533 205.513 292.527 205.534L296.408 206.504ZM290.744 208.52L290.382 204.536C290.362 204.538 290.342 204.54 290.323 204.542L290.744 208.52ZM275.864 208.904L275.517 212.889C275.538 212.891 275.558 212.892 275.579 212.894L275.864 208.904ZM268.856 206.984L264.987 208.001C264.995 208.028 265.002 208.056 265.01 208.083L268.856 206.984ZM256.056 143.048C256.056 144.567 255.217 145.521 254.808 145.892C254.399 146.263 254.025 146.431 253.931 146.473C253.714 146.568 253.645 146.562 253.907 146.507C254.366 146.411 255.215 146.291 256.554 146.167L255.814 138.201C254.401 138.333 253.186 138.485 252.269 138.677C251.843 138.766 251.258 138.908 250.697 139.155C250.431 139.273 249.928 139.518 249.433 139.967C248.938 140.416 248.056 141.449 248.056 143.048H256.056ZM256.636 146.158C259.377 145.847 261.515 145.704 263.096 145.704V137.704C261.093 137.704 258.623 137.881 255.732 138.21L256.636 146.158ZM263.096 145.704C266.549 145.704 268.863 145.937 270.238 146.281C270.932 146.454 271.133 146.596 271.083 146.562C270.981 146.491 270.443 146.056 270.29 145.168L278.174 143.808C277.861 141.992 276.739 140.745 275.629 139.978C274.571 139.248 273.34 138.81 272.178 138.519C269.841 137.935 266.747 137.704 263.096 137.704V145.704ZM270.306 145.255L278.562 187.495L286.414 185.961L278.158 143.721L270.306 145.255ZM286.422 187.452L294.198 145.212L286.33 143.764L278.554 186.004L286.422 187.452ZM294.181 145.298C293.989 146.228 293.404 146.624 293.38 146.64C293.365 146.649 293.431 146.606 293.621 146.534C293.808 146.463 294.075 146.38 294.439 146.295C295.971 145.937 298.486 145.704 302.168 145.704V137.704C298.298 137.704 295.053 137.935 292.617 138.505C291.408 138.788 290.15 139.209 289.068 139.9C287.956 140.612 286.731 141.82 286.347 143.678L294.181 145.298ZM302.168 145.704C303.858 145.704 306.063 145.821 308.814 146.072L309.538 138.104C306.657 137.842 304.19 137.704 302.168 137.704V145.704ZM308.814 146.072C310.186 146.196 311.063 146.317 311.542 146.415C311.815 146.471 311.758 146.48 311.55 146.39C311.462 146.352 311.091 146.19 310.681 145.827C310.277 145.469 309.4 144.508 309.4 142.952H317.4C317.4 141.316 316.479 140.276 315.987 139.84C315.489 139.399 314.986 139.16 314.722 139.046C314.162 138.804 313.577 138.665 313.146 138.577C312.217 138.387 310.982 138.236 309.538 138.104L308.814 146.072ZM309.536 141.919L292.544 205.471L300.272 207.537L317.264 143.985L309.536 141.919ZM292.527 205.534C292.734 204.709 293.209 204.242 293.428 204.069C293.623 203.915 293.693 203.924 293.459 204.008C292.983 204.177 292.02 204.387 290.382 204.536L291.106 212.504C292.988 212.333 294.729 212.047 296.141 211.544C297.269 211.143 299.632 210.099 300.289 207.474L292.527 205.534ZM290.323 204.542C285.069 205.099 280.349 205.214 276.149 204.914L275.579 212.894C280.339 213.234 285.539 213.093 291.165 212.498L290.323 204.542ZM276.211 204.919C274.08 204.734 272.675 204.502 271.857 204.278C271.436 204.163 271.366 204.101 271.477 204.167C271.517 204.191 272.355 204.671 272.702 205.885L265.01 208.083C265.485 209.745 266.711 210.641 267.399 211.049C268.158 211.499 268.996 211.789 269.743 211.994C271.261 212.41 273.232 212.69 275.517 212.889L276.211 204.919ZM272.725 205.967L255.925 142.031L248.187 144.065L264.987 208.001L272.725 205.967ZM319.542 203.336L316.566 206.009C316.574 206.017 316.581 206.025 316.588 206.033L319.542 203.336ZM319.542 166.664L316.588 163.967C316.581 163.975 316.574 163.983 316.566 163.991L319.542 166.664ZM351.894 166.664L348.918 169.337L348.918 169.337L351.894 166.664ZM351.894 203.336L348.918 200.663L348.918 200.663L351.894 203.336ZM322.517 200.663C319.394 197.187 317.59 192.139 317.59 185H309.59C309.59 193.477 311.753 200.653 316.566 206.009L322.517 200.663ZM317.59 185C317.59 177.861 319.394 172.813 322.517 169.337L316.566 163.991C311.753 169.347 309.59 176.523 309.59 185H317.59ZM322.496 169.361C325.664 165.891 329.939 164.04 335.766 164.04V156.04C328.025 156.04 321.483 158.605 316.588 163.967L322.496 169.361ZM335.766 164.04C341.594 164.04 345.821 165.89 348.918 169.337L354.869 163.991C350.03 158.606 343.506 156.04 335.766 156.04V164.04ZM348.918 169.337C352.041 172.813 353.846 177.861 353.846 185H361.846C361.846 176.523 359.682 169.347 354.869 163.991L348.918 169.337ZM353.846 185C353.846 192.139 352.041 197.187 348.918 200.663L354.869 206.009C359.682 200.653 361.846 193.477 361.846 185H353.846ZM348.918 200.663C345.821 204.11 341.594 205.96 335.766 205.96V213.96C343.506 213.96 350.03 211.394 354.869 206.009L348.918 200.663ZM335.766 205.96C329.939 205.96 325.664 204.109 322.496 200.639L316.588 206.033C321.483 211.395 328.025 213.96 335.766 213.96V205.96ZM335.766 172.072C332.646 172.072 329.973 173.479 328.317 176.2C326.856 178.6 326.39 181.684 326.39 184.904H334.39C334.39 182.236 334.819 180.904 335.151 180.36C335.22 180.246 335.273 180.188 335.298 180.163C335.321 180.14 335.332 180.134 335.335 180.132C335.338 180.131 335.361 180.118 335.42 180.104C335.481 180.09 335.591 180.072 335.766 180.072V172.072ZM326.39 184.904C326.39 188.124 326.856 191.208 328.317 193.608C329.973 196.329 332.646 197.736 335.766 197.736V189.736C335.591 189.736 335.481 189.718 335.42 189.704C335.361 189.69 335.338 189.677 335.335 189.676C335.332 189.674 335.321 189.668 335.298 189.645C335.273 189.62 335.22 189.562 335.151 189.448C334.819 188.904 334.39 187.572 334.39 184.904H326.39ZM335.766 197.736C338.885 197.736 341.583 196.358 343.27 193.635C344.761 191.228 345.238 188.131 345.238 184.904H337.238C337.238 187.565 336.802 188.884 336.469 189.421C336.399 189.535 336.345 189.594 336.318 189.621C336.291 189.646 336.275 189.656 336.265 189.661C336.257 189.666 336.132 189.736 335.766 189.736V197.736ZM345.238 184.904C345.238 181.677 344.761 178.58 343.27 176.173C341.583 173.45 338.885 172.072 335.766 172.072V180.072C336.132 180.072 336.257 180.142 336.265 180.147C336.275 180.152 336.291 180.162 336.318 180.187C336.345 180.214 336.399 180.273 336.469 180.387C336.802 180.924 337.238 182.243 337.238 184.904H345.238ZM361.273 161.48H357.273C357.273 161.958 357.358 162.432 357.525 162.88L361.273 161.48ZM379.129 161.384L375.297 162.533C375.299 162.539 375.301 162.545 375.303 162.551L379.129 161.384ZM386.041 184.04L382.215 185.207C382.731 186.9 384.299 188.052 386.068 188.04C387.838 188.028 389.389 186.854 389.882 185.154L386.041 184.04ZM392.665 161.192L389.087 159.403C388.979 159.62 388.89 159.846 388.823 160.078L392.665 161.192ZM410.809 161.672L407.177 159.996C407.124 160.11 407.076 160.227 407.035 160.346L410.809 161.672ZM388.249 225.896L384.475 224.57C384.398 224.788 384.341 225.011 384.303 225.238L388.249 225.896ZM373.465 226.088L373.811 222.103C373.782 222.101 373.754 222.098 373.725 222.096L373.465 226.088ZM369.241 225.32L365.545 223.789C365.539 223.804 365.533 223.819 365.527 223.834L369.241 225.32ZM377.593 205.16L381.288 206.691C381.675 205.756 381.694 204.708 381.34 203.76L377.593 205.16ZM365.273 161.48C365.273 162.947 364.464 163.888 363.993 164.286C363.567 164.646 363.203 164.771 363.182 164.778C363.11 164.805 363.293 164.737 363.937 164.659C365.145 164.513 367.133 164.424 370.009 164.424V156.424C367.06 156.424 364.68 156.511 362.976 156.717C362.164 156.815 361.255 156.967 360.455 157.258C360.07 157.397 359.433 157.665 358.825 158.179C358.172 158.731 357.273 159.837 357.273 161.48H365.273ZM370.009 164.424C372.915 164.424 374.979 164.504 376.286 164.642C376.603 164.675 376.849 164.71 377.034 164.741C377.125 164.757 377.194 164.771 377.243 164.782C377.293 164.793 377.314 164.799 377.312 164.798C377.311 164.798 377.267 164.785 377.194 164.755C377.125 164.727 376.988 164.666 376.817 164.559C376.565 164.403 375.679 163.807 375.297 162.533L382.96 160.235C382.53 158.801 381.507 158.055 381.029 157.759C380.492 157.426 379.958 157.239 379.589 157.13C378.833 156.905 377.965 156.775 377.123 156.686C375.39 156.504 372.99 156.424 370.009 156.424V164.424ZM375.303 162.551L382.215 185.207L389.866 182.873L382.954 160.217L375.303 162.551ZM389.882 185.154L396.506 162.306L388.823 160.078L382.199 182.926L389.882 185.154ZM396.242 162.981C395.848 163.77 395.29 164.191 395.024 164.364C394.742 164.548 394.525 164.624 394.478 164.64C394.388 164.671 394.472 164.633 394.856 164.583C395.592 164.488 396.813 164.424 398.617 164.424V156.424C396.708 156.424 395.081 156.488 393.833 156.649C393.225 156.727 392.533 156.849 391.883 157.072C391.556 157.184 391.113 157.364 390.659 157.66C390.221 157.945 389.545 158.486 389.087 159.403L396.242 162.981ZM398.617 164.424C402.849 164.424 405.823 164.529 407.641 164.715C408.085 164.761 408.423 164.807 408.67 164.851C408.934 164.897 409.014 164.927 408.978 164.914C408.956 164.907 408.848 164.869 408.692 164.787C408.55 164.713 408.244 164.536 407.916 164.208C407.575 163.868 407.117 163.266 406.922 162.382C406.718 161.455 406.891 160.615 407.177 159.996L414.44 163.348C414.774 162.625 414.96 161.684 414.735 160.66C414.518 159.678 414.004 158.982 413.572 158.551C412.813 157.792 411.931 157.468 411.547 157.338C410.635 157.029 409.518 156.866 408.456 156.757C406.21 156.527 402.896 156.424 398.617 156.424V164.424ZM407.035 160.346L384.475 224.57L392.022 227.222L414.582 162.998L407.035 160.346ZM384.303 225.238C384.548 223.768 385.505 222.992 385.877 222.736C386.28 222.459 386.615 222.353 386.678 222.334C386.829 222.286 386.806 222.312 386.447 222.352C385.789 222.423 384.66 222.472 382.969 222.472V230.472C384.733 230.472 386.212 230.425 387.314 230.304C387.835 230.248 388.48 230.154 389.087 229.962C389.378 229.871 389.888 229.688 390.413 229.326C390.907 228.986 391.933 228.12 392.194 226.554L384.303 225.238ZM382.969 222.472C379.676 222.472 376.624 222.348 373.811 222.103L373.118 230.073C376.193 230.34 379.477 230.472 382.969 230.472V222.472ZM373.725 222.096C372.281 222.002 371.383 221.901 370.916 221.817C370.625 221.764 370.769 221.763 371.074 221.9C371.183 221.95 371.779 222.213 372.324 222.86C372.633 223.227 372.994 223.799 373.153 224.575C373.319 225.386 373.212 226.161 372.954 226.806L365.527 223.834C364.867 225.483 365.398 227.056 366.205 228.014C366.814 228.737 367.522 229.074 367.791 229.196C368.416 229.477 369.072 229.612 369.485 229.687C370.426 229.859 371.704 229.982 373.204 230.08L373.725 222.096ZM372.936 226.851L381.288 206.691L373.897 203.629L365.545 223.789L372.936 226.851ZM381.34 203.76L365.02 160.08L357.525 162.88L373.845 206.56L381.34 203.76ZM422.243 174.152L418.753 176.106C419.62 177.655 421.404 178.447 423.134 178.051L422.243 174.152ZM421.187 162.44L419.58 158.777C419.491 158.816 419.402 158.859 419.315 158.905L421.187 162.44ZM449.699 164.552L446.685 167.181C446.694 167.192 446.703 167.203 446.713 167.213L449.699 164.552ZM453.635 192.872H449.635C449.635 195.081 451.426 196.872 453.635 196.872V192.872ZM459.395 194.792L455.747 196.433C455.77 196.483 455.793 196.532 455.817 196.581L459.395 194.792ZM458.627 206.696L455.092 204.824C455.077 204.852 455.063 204.879 455.049 204.907L458.627 206.696ZM445.763 207.176L448.403 204.171C448.357 204.131 448.31 204.091 448.262 204.053L445.763 207.176ZM443.555 204.392L447.174 202.689C446.585 201.437 445.39 200.578 444.015 200.419C442.641 200.259 441.281 200.822 440.421 201.906L443.555 204.392ZM418.019 204.968L420.902 202.196L418.019 204.968ZM437.219 177.512V181.512C439.428 181.512 441.219 179.721 441.219 177.512H437.219ZM436.355 173.384L433.527 176.212C433.644 176.33 433.768 176.44 433.899 176.541L436.355 173.384ZM431.075 195.08L428.247 197.908C428.288 197.949 428.329 197.989 428.372 198.029L431.075 195.08ZM437.219 194.696L440.047 197.524C440.798 196.774 441.219 195.757 441.219 194.696H437.219ZM437.219 187.304H441.219C441.219 185.095 439.428 183.304 437.219 183.304V187.304ZM425.733 172.198C424.036 169.167 423.555 167.312 423.555 166.376H415.555C415.555 169.408 416.866 172.737 418.753 176.106L425.733 172.198ZM423.555 166.376C423.555 166.037 423.578 165.789 423.606 165.617C423.633 165.445 423.662 165.379 423.658 165.388C423.653 165.401 423.61 165.497 423.499 165.626C423.383 165.76 423.231 165.884 423.059 165.975L419.315 158.905C416.203 160.553 415.555 163.884 415.555 166.376H423.555ZM422.794 166.103C425.724 164.818 430.09 164.04 436.163 164.04V156.04C429.564 156.04 423.946 156.862 419.58 158.777L422.794 166.103ZM436.163 164.04C442.092 164.04 445.177 165.453 446.685 167.181L452.713 161.923C448.973 157.635 443.034 156.04 436.163 156.04V164.04ZM446.713 167.213C448.433 169.143 449.635 172.404 449.635 177.704H457.635C457.635 171.356 456.213 165.849 452.685 161.891L446.713 167.213ZM449.635 177.704V192.872H457.635V177.704H449.635ZM453.635 196.872H456.899V188.872H453.635V196.872ZM456.899 196.872C456.773 196.872 456.6 196.853 456.402 196.787C456.203 196.72 456.033 196.624 455.9 196.522C455.647 196.328 455.642 196.2 455.747 196.433L463.043 193.151C462.572 192.104 461.863 191.016 460.778 190.182C459.636 189.303 458.291 188.872 456.899 188.872V196.872ZM455.817 196.581C456.066 197.079 456.355 198.137 456.355 200.072H464.355C464.355 197.527 464.004 195.065 462.973 193.003L455.817 196.581ZM456.355 200.072C456.355 201.597 455.969 203.167 455.092 204.824L462.162 208.568C463.589 205.873 464.355 203.027 464.355 200.072H456.355ZM455.049 204.907C454.707 205.592 454.432 205.836 454.339 205.903C454.296 205.934 454.274 205.941 454.266 205.944C454.255 205.947 454.212 205.96 454.115 205.96V213.96C457.979 213.96 460.655 211.585 462.205 208.485L455.049 204.907ZM454.115 205.96C451.399 205.96 449.628 205.248 448.403 204.171L443.123 210.181C446.122 212.816 449.919 213.96 454.115 213.96V205.96ZM448.262 204.053C447.768 203.657 447.42 203.211 447.174 202.689L439.936 206.095C440.714 207.749 441.838 209.159 443.264 210.299L448.262 204.053ZM440.421 201.906C438.458 204.381 435.223 205.96 429.827 205.96V213.96C436.847 213.96 442.764 211.827 446.689 206.878L440.421 201.906ZM429.827 205.96C426.228 205.96 423.338 204.729 420.902 202.196L415.136 207.74C419.1 211.863 424.082 213.96 429.827 213.96V205.96ZM420.902 202.196C418.406 199.599 417.219 196.652 417.219 193.16H409.219C409.219 198.756 411.232 203.681 415.136 207.74L420.902 202.196ZM417.219 193.16C417.219 188.768 418.498 186.136 420.464 184.493C422.568 182.735 426.158 181.512 431.939 181.512V173.512C425.24 173.512 419.47 174.897 415.334 178.355C411.06 181.928 409.219 187.12 409.219 193.16H417.219ZM431.939 181.512H437.219V173.512H431.939V181.512ZM441.219 177.512V176.552H433.219V177.512H441.219ZM441.219 176.552C441.219 175.529 441.135 174.459 440.862 173.46C440.599 172.493 440.048 171.189 438.811 170.227L433.899 176.541C433.564 176.28 433.367 176.006 433.265 175.826C433.165 175.654 433.139 175.548 433.144 175.564C433.148 175.578 433.169 175.662 433.187 175.839C433.206 176.013 433.219 176.248 433.219 176.552H441.219ZM439.183 170.556C438.094 169.466 436.719 169.07 435.839 168.89C434.847 168.686 433.742 168.616 432.611 168.616V176.616C433.464 176.616 433.975 176.674 434.231 176.726C434.353 176.751 434.336 176.759 434.233 176.714C434.136 176.672 433.847 176.533 433.527 176.212L439.183 170.556ZM432.611 168.616C429.721 168.616 425.914 169.21 421.352 170.253L423.134 178.051C427.532 177.046 430.637 176.616 432.611 176.616V168.616ZM425.923 191.816C425.923 193.957 426.525 196.186 428.247 197.908L433.903 192.252C433.93 192.278 433.953 192.307 433.97 192.335C433.986 192.361 433.988 192.372 433.983 192.357C433.971 192.323 433.923 192.163 433.923 191.816H425.923ZM428.372 198.029C429.958 199.482 431.917 200.136 433.955 200.136V192.136C433.79 192.136 433.735 192.112 433.748 192.116C433.753 192.118 433.762 192.122 433.773 192.129C433.783 192.135 433.785 192.138 433.778 192.131L428.372 198.029ZM433.955 200.136C436.36 200.136 438.433 199.139 440.047 197.524L434.391 191.868C434.211 192.047 434.101 192.102 434.068 192.116C434.045 192.127 434.02 192.136 433.955 192.136V200.136ZM441.219 194.696V187.304H433.219V194.696H441.219ZM437.219 183.304H434.531V191.304H437.219V183.304ZM434.531 183.304C432.399 183.304 430.062 183.826 428.277 185.574C426.476 187.337 425.923 189.674 425.923 191.816H433.923C433.923 191.393 433.978 191.187 433.998 191.131C434.01 191.095 433.984 191.182 433.874 191.29C433.765 191.397 433.69 191.41 433.756 191.389C433.841 191.361 434.077 191.304 434.531 191.304V183.304ZM469.053 203.048L465.992 205.623C465.999 205.631 466.005 205.639 466.012 205.647L469.053 203.048ZM470.589 166.856L467.76 164.028L467.76 164.028L470.589 166.856ZM506.685 165.032H510.685C510.685 163.708 510.029 162.469 508.934 161.724L506.685 165.032ZM500.925 223.688L498.745 220.334C498.732 220.343 498.719 220.351 498.706 220.36L500.925 223.688ZM470.013 225.224L466.32 226.762C466.77 227.841 467.668 228.669 468.779 229.029L470.013 225.224ZM471.069 212.072L472.658 208.401C470.914 207.647 468.881 208.222 467.792 209.778L471.069 212.072ZM490.077 208.232H494.077C494.077 207.043 493.548 205.916 492.633 205.156C491.719 204.396 490.514 204.082 489.345 204.299L490.077 208.232ZM483.933 193.352L486.363 190.175C486.339 190.157 486.316 190.14 486.293 190.122L483.933 193.352ZM490.077 194.312L490.976 198.21C492.791 197.791 494.077 196.175 494.077 194.312H490.077ZM490.077 176.072H494.077C494.077 174.237 492.828 172.637 491.047 172.191L490.077 176.072ZM483.453 205C478.171 205 474.58 203.358 472.093 200.449L466.012 205.647C470.309 210.674 476.319 213 483.453 213V205ZM472.114 200.473C469.561 197.439 467.965 192.594 467.965 185.288H459.965C459.965 193.598 461.76 200.593 465.992 205.623L472.114 200.473ZM467.965 185.288C467.965 178.186 469.935 173.167 473.417 169.684L467.76 164.028C462.411 169.377 459.965 176.646 459.965 185.288H467.965ZM473.417 169.684C477.025 166.076 481.864 164.136 488.349 164.136V156.136C480.113 156.136 473.112 158.676 467.76 164.028L473.417 169.684ZM488.349 164.136C495.194 164.136 500.462 165.638 504.436 168.34L508.934 161.724C503.308 157.898 496.352 156.136 488.349 156.136V164.136ZM502.685 165.032V212.84H510.685V165.032H502.685ZM502.685 212.84C502.685 216.278 501.404 218.606 498.745 220.334L503.105 227.042C508.126 223.778 510.685 218.874 510.685 212.84H502.685ZM498.706 220.36C495.696 222.367 491.604 223.528 486.141 223.528V231.528C492.71 231.528 498.474 230.129 503.144 227.016L498.706 220.36ZM486.141 223.528C480.459 223.528 475.511 222.802 471.247 221.419L468.779 229.029C473.986 230.718 479.79 231.528 486.141 231.528V223.528ZM473.705 223.686C473.198 222.469 473.053 221.628 473.053 221.096H465.053C465.053 222.996 465.547 224.907 466.32 226.762L473.705 223.686ZM473.053 221.096C473.053 217.278 473.709 215.275 474.346 214.366L467.792 209.778C465.74 212.709 465.053 216.722 465.053 221.096H473.053ZM469.48 215.743C474.29 217.825 479.409 218.856 484.797 218.856V210.856C480.456 210.856 476.423 210.031 472.658 208.401L469.48 215.743ZM484.797 218.856C486.908 218.856 489.208 218.504 491.07 217.183C493.185 215.683 494.077 213.423 494.077 211.112H486.077C486.077 211.267 486.05 211.211 486.127 211.048C486.213 210.865 486.345 210.726 486.443 210.657C486.516 210.606 486.47 210.662 486.187 210.729C485.902 210.797 485.453 210.856 484.797 210.856V218.856ZM494.077 211.112V208.232H486.077V211.112H494.077ZM489.345 204.299C486.695 204.792 484.762 205 483.453 205V213C485.472 213 487.954 212.696 490.808 212.165L489.345 204.299ZM487.869 171.784C484.551 171.784 481.612 173.131 479.711 175.997C478.002 178.574 477.437 181.932 477.437 185.48H485.437C485.437 182.564 485.943 181.074 486.378 180.419C486.621 180.053 486.898 179.784 487.869 179.784V171.784ZM477.437 185.48C477.437 189.663 478.221 194.132 481.573 196.582L486.293 190.122C486.345 190.161 486.118 190.034 485.874 189.263C485.625 188.478 485.437 187.258 485.437 185.48H477.437ZM481.503 196.529C483.105 197.755 485.025 198.6 487.197 198.6V190.6C487.193 190.6 486.936 190.613 486.363 190.175L481.503 196.529ZM487.197 198.6C488.509 198.6 489.782 198.485 490.976 198.21L489.177 190.414C488.708 190.523 488.06 190.6 487.197 190.6V198.6ZM494.077 194.312V176.072H486.077V194.312H494.077ZM491.047 172.191C490 171.93 488.937 171.784 487.869 171.784V179.784C488.208 179.784 488.617 179.83 489.107 179.953L491.047 172.191ZM551.577 206.408L549.864 202.793C549.758 202.844 549.653 202.899 549.551 202.959L551.577 206.408ZM519.993 203.528L517.164 206.356C517.171 206.363 517.178 206.37 517.185 206.377L519.993 203.528ZM519.705 167.048L516.738 164.365C516.731 164.373 516.724 164.38 516.717 164.388L519.705 167.048ZM550.425 164.936L547.678 167.844C547.687 167.852 547.696 167.861 547.705 167.869L550.425 164.936ZM531.225 192.392V188.392C529.016 188.392 527.225 190.183 527.225 192.392H531.225ZM532.761 196.424L530.361 199.624C530.435 199.679 530.51 199.732 530.588 199.782L532.761 196.424ZM550.233 194.408L552.044 197.974C552.42 197.783 552.763 197.534 553.061 197.236L550.233 194.408ZM551.097 195.752L547.567 197.634C547.579 197.657 547.592 197.679 547.604 197.701L551.097 195.752ZM532.473 175.784L535.057 178.838C535.063 178.832 535.069 178.827 535.076 178.821L532.473 175.784ZM531.225 181.928H527.225C527.225 184.137 529.016 185.928 531.225 185.928V181.928ZM549.551 202.959C546.314 204.86 541.892 205.96 536.025 205.96V213.96C542.83 213.96 548.776 212.692 553.602 209.857L549.551 202.959ZM536.025 205.96C530.696 205.96 526.373 204.199 522.8 200.679L517.185 206.377C522.316 211.433 528.682 213.96 536.025 213.96V205.96ZM522.821 200.7C519.389 197.267 517.465 192.398 517.465 185.576H509.465C509.465 193.986 511.892 201.085 517.164 206.356L522.821 200.7ZM517.465 185.576C517.465 178.644 519.324 173.49 522.692 169.708L516.717 164.388C511.765 169.95 509.465 177.148 509.465 185.576H517.465ZM522.672 169.731C526.124 165.913 530.351 164.04 535.641 164.04V156.04C528.131 156.04 521.734 158.839 516.738 164.365L522.672 169.731ZM535.641 164.04C541.38 164.04 545.191 165.495 547.678 167.844L553.171 162.028C548.746 157.849 542.701 156.04 535.641 156.04V164.04ZM547.705 167.869C550.434 170.4 551.705 173.315 551.705 176.84H559.705C559.705 171.021 557.455 166 553.145 162.003L547.705 167.869ZM551.705 176.84C551.705 181.253 550.464 183.876 548.614 185.488C546.658 187.191 543.309 188.392 537.849 188.392V196.392C544.292 196.392 549.872 195.001 553.868 191.52C557.97 187.948 559.705 182.795 559.705 176.84H551.705ZM537.849 188.392H531.225V196.392H537.849V188.392ZM527.225 192.392C527.225 194.919 527.902 197.78 530.361 199.624L535.161 193.224C535.23 193.276 535.286 193.335 535.324 193.387C535.36 193.437 535.361 193.455 535.347 193.416C535.311 193.323 535.225 193.019 535.225 192.392H527.225ZM530.588 199.782C532.598 201.083 535.056 201.48 537.465 201.48V193.48C535.778 193.48 535.1 193.173 534.934 193.066L530.588 199.782ZM537.465 201.48C542.58 201.48 547.456 200.305 552.044 197.974L548.421 190.842C544.945 192.607 541.309 193.48 537.465 193.48V201.48ZM553.061 197.236C552.301 197.996 551.283 198.402 550.247 198.402C549.357 198.402 548.7 198.106 548.385 197.937C547.784 197.617 547.431 197.221 547.374 197.159C547.176 196.943 547.084 196.784 547.132 196.859C547.184 196.94 547.321 197.173 547.567 197.634L554.626 193.87C554.36 193.371 554.098 192.9 553.861 192.533C553.766 192.384 553.557 192.065 553.271 191.753C553.17 191.643 552.78 191.215 552.15 190.879C551.819 190.702 551.149 190.402 550.247 190.402C549.2 190.402 548.172 190.812 547.404 191.58L553.061 197.236ZM547.604 197.701C548.997 200.198 549.401 201.828 549.401 202.76H557.401C557.401 199.852 556.268 196.81 554.59 193.803L547.604 197.701ZM549.401 202.76C549.401 203.01 549.38 203.169 549.363 203.255C549.346 203.34 549.337 203.336 549.367 203.275C549.4 203.209 549.465 203.107 549.571 203.003C549.678 202.898 549.786 202.83 549.864 202.793L553.289 210.023C556.429 208.536 557.401 205.478 557.401 202.76H549.401ZM543.577 178.664C543.577 176.727 543.104 174.536 541.455 172.846C539.788 171.138 537.594 170.632 535.641 170.632V178.632C535.8 178.632 535.912 178.642 535.984 178.653C536.056 178.663 536.081 178.673 536.07 178.669C536.058 178.665 536.012 178.648 535.945 178.607C535.912 178.587 535.876 178.562 535.839 178.532C535.802 178.503 535.765 178.47 535.73 178.434C535.696 178.399 535.665 178.362 535.638 178.327C535.61 178.291 535.589 178.258 535.572 178.229C535.537 178.17 535.526 178.135 535.527 178.138C535.528 178.142 535.541 178.183 535.554 178.271C535.566 178.36 535.577 178.489 535.577 178.664H543.577ZM535.641 170.632C533.502 170.632 531.514 171.337 529.87 172.747L535.076 178.821C535.223 178.695 535.348 178.632 535.641 178.632V170.632ZM529.889 172.73C527.911 174.404 527.225 176.736 527.225 178.952H535.225C535.225 178.633 535.273 178.534 535.258 178.57C535.25 178.59 535.23 178.635 535.19 178.692C535.149 178.749 535.102 178.799 535.057 178.838L529.889 172.73ZM527.225 178.952V181.928H535.225V178.952H527.225ZM531.225 185.928H536.409V177.928H531.225V185.928ZM536.409 185.928C538.112 185.928 540.117 185.482 541.655 183.898C543.171 182.336 543.577 180.339 543.577 178.664H535.577C535.577 179.165 535.454 178.8 535.914 178.326C536.133 178.101 536.36 177.987 536.495 177.941C536.61 177.901 536.605 177.928 536.409 177.928V185.928ZM563.992 191.72L566.063 188.298C564.696 187.471 562.967 187.536 561.667 188.465L563.992 191.72ZM574.168 190.664L575.844 187.032C575.79 187.007 575.735 186.983 575.679 186.96L574.168 190.664ZM567.352 163.784L569.694 167.027L569.694 167.027L567.352 163.784ZM592.024 161.576L590.848 165.399C590.855 165.401 590.861 165.403 590.868 165.405L592.024 161.576ZM595 171.176L591.587 169.09C591.573 169.113 591.559 169.137 591.545 169.161L595 171.176ZM592.216 174.92L590.267 178.413C591.293 178.986 592.52 179.078 593.621 178.665L592.216 174.92ZM581.656 176.456L578.98 179.429C579.084 179.522 579.191 179.609 579.304 179.691L581.656 176.456ZM585.4 178.472L583.716 182.1C583.752 182.117 583.788 182.133 583.825 182.149L585.4 178.472ZM589.816 180.584L587.874 184.081C587.9 184.095 587.927 184.11 587.953 184.124L589.816 180.584ZM593.848 183.272L596.331 180.136C596.325 180.131 596.319 180.127 596.313 180.122L593.848 183.272ZM593.368 205.256L596.084 208.193C596.094 208.184 596.103 208.175 596.113 208.166L593.368 205.256ZM565.624 207.656L567.154 203.96L565.624 207.656ZM561.304 195.656L557.659 194.01C557.644 194.043 557.629 194.076 557.615 194.109L561.304 195.656ZM561.922 195.142C567.213 198.344 572.112 200.424 576.28 200.424V192.424C574.433 192.424 571.139 191.368 566.063 188.298L561.922 195.142ZM576.28 200.424C577.584 200.424 579.275 200.218 580.734 199.197C582.453 197.994 583.16 196.164 583.16 194.408H575.16C575.16 194.268 575.186 193.954 575.369 193.57C575.561 193.167 575.849 192.851 576.146 192.643C576.418 192.453 576.62 192.405 576.631 192.403C576.642 192.4 576.54 192.424 576.28 192.424V200.424ZM583.16 194.408C583.16 192.991 582.551 191.901 582.043 191.227C581.525 190.54 580.894 189.988 580.312 189.552C579.147 188.678 577.602 187.843 575.844 187.032L572.492 194.296C574.062 195.021 575.014 195.578 575.512 195.952C575.763 196.14 575.755 196.176 575.654 196.041C575.561 195.919 575.16 195.345 575.16 194.408H583.16ZM575.679 186.96C572.157 185.523 569.825 183.755 568.371 181.811C566.946 179.908 566.168 177.582 566.168 174.632H558.168C558.168 179.106 559.39 183.164 561.966 186.605C564.511 190.005 568.179 192.541 572.657 194.368L575.679 186.96ZM566.168 174.632C566.168 171.015 567.406 168.679 569.694 167.027L565.01 160.541C560.386 163.881 558.168 168.777 558.168 174.632H566.168ZM569.694 167.027C572.384 165.084 575.667 164.04 579.736 164.04V156.04C574.206 156.04 569.232 157.492 565.01 160.541L569.694 167.027ZM579.736 164.04C584.347 164.04 588.019 164.529 590.848 165.399L593.201 157.753C589.374 156.575 584.854 156.04 579.736 156.04V164.04ZM590.868 165.405C592.35 165.853 593.075 166.265 593.356 166.487C593.473 166.58 593.408 166.558 593.31 166.385C593.197 166.184 593.112 165.907 593.112 165.608H601.112C601.112 163.205 599.818 161.401 598.325 160.217C596.909 159.095 595.091 158.323 593.18 157.747L590.868 165.405ZM593.112 165.608C593.112 165.868 592.906 166.932 591.587 169.09L598.413 173.262C599.911 170.812 601.112 168.164 601.112 165.608H593.112ZM591.545 169.161C590.903 170.261 590.421 171.003 590.086 171.453C589.917 171.681 589.84 171.759 589.85 171.75C589.857 171.742 589.924 171.675 590.048 171.584C590.16 171.501 590.419 171.322 590.812 171.175L593.621 178.665C594.566 178.311 595.212 177.701 595.507 177.406C595.876 177.037 596.212 176.623 596.506 176.227C597.099 175.429 597.753 174.395 598.455 173.191L591.545 169.161ZM594.166 171.427C590.808 169.553 587.16 168.616 583.288 168.616V176.616C585.817 176.616 588.12 177.215 590.267 178.413L594.166 171.427ZM583.288 168.616C582.077 168.616 580.455 168.807 579.042 169.801C577.373 170.975 576.696 172.757 576.696 174.44H584.696C584.696 174.609 584.665 174.949 584.473 175.354C584.271 175.78 583.968 176.117 583.646 176.343C583.098 176.729 582.771 176.616 583.288 176.616V168.616ZM576.696 174.44C576.696 176.486 577.611 178.197 578.98 179.429L584.332 173.483C584.343 173.492 584.449 173.592 584.548 173.8C584.652 174.019 584.696 174.249 584.696 174.44H576.696ZM579.304 179.691C580.349 180.451 581.908 181.261 583.716 182.1L587.085 174.844C585.308 174.019 584.371 173.485 584.009 173.221L579.304 179.691ZM583.825 182.149C585.545 182.886 586.883 183.53 587.874 184.081L591.759 177.087C590.446 176.358 588.84 175.594 586.976 174.795L583.825 182.149ZM587.953 184.124C588.897 184.62 590.037 185.369 591.383 186.422L596.313 180.122C594.715 178.871 593.167 177.828 591.679 177.044L587.953 184.124ZM591.365 186.408C593.483 188.085 594.456 190.099 594.456 192.776H602.456C602.456 187.645 600.357 183.323 596.331 180.136L591.365 186.408ZM594.456 192.776C594.456 196.914 593.131 199.981 590.623 202.346L596.113 208.166C600.389 204.131 602.456 198.878 602.456 192.776H594.456ZM590.653 202.319C588.288 204.505 584.326 205.96 578.008 205.96V213.96C585.386 213.96 591.664 212.279 596.084 208.193L590.653 202.319ZM578.008 205.96C573.921 205.96 570.321 205.271 567.154 203.96L564.095 211.352C568.351 213.113 573.008 213.96 578.008 213.96V205.96ZM567.154 203.96C564.082 202.689 564.056 201.63 564.056 201.32H556.056C556.056 206.386 559.743 209.551 564.095 211.352L567.154 203.96ZM564.056 201.32C564.056 200.154 564.326 198.793 564.993 197.203L557.615 194.109C556.618 196.487 556.056 198.902 556.056 201.32H564.056ZM564.95 197.302C565.334 196.451 565.673 195.847 565.951 195.44C566.242 195.015 566.38 194.93 566.317 194.975L561.667 188.465C559.866 189.752 558.612 191.898 557.659 194.01L564.95 197.302Z" fill="black" mask="url(#path-21-outside-3_13_163)"/>
</svg>
