<svg width="180" height="60" viewBox="0 0 180 60" fill="none" xmlns="http://www.w3.org/2000/svg">
<rect width="180" height="60" rx="10" fill="#500000"/>
<path d="M76.3878 20.176C76.4198 20.256 76.4358 20.376 76.4358 20.536C76.4358 20.68 76.4358 20.8 76.4358 20.896C76.4358 21.024 76.4118 21.144 76.3638 21.256C76.3158 21.368 76.2518 21.472 76.1718 21.568C76.0278 21.76 75.8198 21.904 75.5478 22C75.1638 22.128 74.8038 22.192 74.4678 22.192C74.2918 22.208 74.1078 22.216 73.9158 22.216C73.7238 22.216 73.5318 22.232 73.3398 22.264H73.2438C72.0118 22.28 70.7398 22.28 69.4278 22.264C69.1078 22.248 68.7478 22.248 68.3478 22.264C67.9478 22.296 67.5558 22.288 67.1718 22.24C66.7878 22.208 66.4358 22.12 66.1158 21.976C65.8118 21.816 65.5958 21.568 65.4678 21.232C65.4358 21.152 65.4118 21.08 65.3958 21.016C65.3798 20.936 65.3718 20.856 65.3718 20.776C65.3078 20.232 65.2838 19.696 65.2998 19.168C65.3158 18.64 65.3238 18.12 65.3238 17.608L65.3718 14.128V10.912C65.3718 10.336 65.3718 9.824 65.3718 9.376C65.3878 8.928 65.4038 8.432 65.4198 7.888V7.768C65.4358 7.608 65.4438 7.448 65.4438 7.288C65.4598 7.128 65.4678 6.968 65.4678 6.808C65.4998 6.44 65.5878 6.128 65.7318 5.872C65.8278 5.632 65.9958 5.44 66.2358 5.296C66.4438 5.152 66.6918 5.08 66.9798 5.08C67.0918 5.08 67.1958 5.088 67.2918 5.104C67.4038 5.104 67.5078 5.112 67.6038 5.128C67.6998 5.144 67.7878 5.176 67.8678 5.224C67.9638 5.272 68.0598 5.336 68.1558 5.416C68.2518 5.528 68.3398 5.664 68.4198 5.824C68.4838 6 68.5238 6.176 68.5398 6.352C68.5558 6.464 68.5718 6.568 68.5878 6.664C68.6038 6.76 68.6118 6.856 68.6118 6.952C68.5798 7.048 68.5638 7.144 68.5638 7.24C68.5638 7.336 68.5638 7.424 68.5638 7.504V7.936L68.4678 19.24L73.2198 19.288H74.3478C74.4438 19.288 74.5478 19.296 74.6598 19.312C74.7718 19.312 74.8838 19.32 74.9958 19.336C75.1238 19.352 75.2358 19.368 75.3318 19.384C75.4278 19.4 75.5238 19.424 75.6198 19.456C75.7958 19.504 75.9398 19.584 76.0518 19.696C76.2278 19.856 76.3398 20.016 76.3878 20.176ZM80.1849 11.152C80.7129 10.896 81.2649 10.712 81.8409 10.6C82.4169 10.488 82.9849 10.464 83.5449 10.528C84.1209 10.592 84.6729 10.744 85.2009 10.984C85.7449 11.224 86.2409 11.56 86.6889 11.992C87.0569 12.36 87.3769 12.808 87.6489 13.336C87.9209 13.848 88.1209 14.352 88.2489 14.848C88.5209 15.728 88.5609 16.616 88.3689 17.512C88.1769 18.408 87.8489 19.24 87.3849 20.008C87.1609 20.36 86.8809 20.68 86.5449 20.968C86.2249 21.24 85.8809 21.464 85.5129 21.64C85.0329 21.864 84.5129 22.016 83.9529 22.096C83.3929 22.192 82.8489 22.216 82.3209 22.168C81.3609 22.12 80.5129 21.88 79.7769 21.448C79.0569 21.016 78.4729 20.464 78.0249 19.792C77.5929 19.12 77.3049 18.36 77.1609 17.512C77.0329 16.648 77.0889 15.768 77.3289 14.872C77.5849 13.912 77.9529 13.136 78.4329 12.544C78.9289 11.936 79.5129 11.472 80.1849 11.152ZM80.9049 14.368C80.6649 14.592 80.4809 14.872 80.3529 15.208C80.2249 15.544 80.1449 15.896 80.1129 16.264C80.0809 16.616 80.1049 16.976 80.1849 17.344C80.2809 17.696 80.4249 18.016 80.6169 18.304C80.7769 18.544 81.0649 18.744 81.4809 18.904C81.8969 19.064 82.3289 19.16 82.7769 19.192C83.2889 19.224 83.7369 19.088 84.1209 18.784C84.5049 18.464 84.7929 18.072 84.9849 17.608C85.1929 17.144 85.2889 16.64 85.2729 16.096C85.2569 15.552 85.1129 15.056 84.8409 14.608C84.6489 14.288 84.3769 14.056 84.0249 13.912C83.6889 13.752 83.3289 13.672 82.9449 13.672C82.5769 13.656 82.2089 13.712 81.8409 13.84C81.4729 13.952 81.1609 14.128 80.9049 14.368ZM100.361 17.464C100.361 17.976 100.345 18.528 100.313 19.12C100.297 19.712 100.273 20.264 100.241 20.776C100.241 21.256 100.217 21.736 100.169 22.216C100.137 22.632 100.073 23.08 99.9774 23.56C99.8814 24.056 99.7454 24.512 99.5694 24.928C99.3454 25.472 99.0414 25.936 98.6574 26.32C98.2734 26.72 97.7774 27.008 97.1694 27.184C96.6574 27.312 96.1774 27.392 95.7294 27.424C95.2814 27.472 94.8014 27.464 94.2894 27.4C93.9534 27.352 93.5934 27.256 93.2094 27.112C92.8254 26.984 92.4654 26.816 92.1294 26.608C91.7934 26.4 91.4974 26.152 91.2414 25.864C90.9854 25.592 90.8094 25.28 90.7134 24.928C90.6014 24.496 90.5934 24.12 90.6894 23.8C90.8014 23.48 90.9694 23.248 91.1934 23.104C91.4174 22.96 91.6814 22.936 91.9854 23.032C92.2894 23.128 92.5774 23.376 92.8494 23.776C93.0414 24.064 93.3214 24.296 93.6894 24.472C94.0574 24.648 94.4494 24.752 94.8654 24.784C95.2814 24.816 95.6814 24.76 96.0654 24.616C96.4654 24.488 96.7774 24.256 97.0014 23.92C97.1614 23.68 97.2734 23.336 97.3374 22.888C97.4174 22.44 97.4654 22 97.4814 21.568C96.6654 21.904 95.8254 22.032 94.9614 21.952C94.1134 21.856 93.3374 21.592 92.6334 21.16C91.9454 20.712 91.3854 20.12 90.9534 19.384C90.5374 18.632 90.3614 17.784 90.4254 16.84C90.4734 16.024 90.6414 15.256 90.9294 14.536C91.2334 13.816 91.7294 13.216 92.4174 12.736C92.9774 12.352 93.6094 12.104 94.3134 11.992C95.0174 11.864 95.6974 11.8 96.3534 11.8C96.7374 11.8 97.1134 11.8 97.4814 11.8C97.8654 11.8 98.2174 11.848 98.5374 11.944C98.8574 12.04 99.1454 12.2 99.4014 12.424C99.6574 12.648 99.8494 12.976 99.9774 13.408C100.185 14.08 100.297 14.744 100.313 15.4C100.345 16.056 100.361 16.744 100.361 17.464ZM95.7294 19.456C95.8894 19.456 96.0414 19.44 96.1854 19.408C96.3454 19.376 96.4974 19.336 96.6414 19.288C96.9134 19.192 97.1134 19.064 97.2414 18.904C97.3854 18.744 97.4814 18.568 97.5294 18.376C97.5774 18.168 97.5934 17.944 97.5774 17.704C97.5774 17.464 97.5774 17.216 97.5774 16.96C97.5774 16.752 97.5694 16.52 97.5534 16.264C97.5534 16.008 97.5374 15.768 97.5054 15.544C97.4734 15.304 97.4254 15.096 97.3614 14.92C97.2974 14.744 97.2014 14.632 97.0734 14.584C96.8494 14.52 96.5934 14.48 96.3054 14.464C96.0174 14.432 95.7294 14.432 95.4414 14.464C95.1534 14.48 94.8734 14.536 94.6014 14.632C94.3454 14.712 94.1294 14.824 93.9534 14.968C93.7134 15.176 93.5294 15.432 93.4014 15.736C93.2734 16.04 93.1934 16.36 93.1614 16.696C93.1454 17.032 93.1694 17.36 93.2334 17.68C93.3134 18 93.4494 18.288 93.6414 18.544C93.8654 18.864 94.1694 19.096 94.5534 19.24C94.9374 19.384 95.3294 19.456 95.7294 19.456ZM105.404 11.152C105.932 10.896 106.484 10.712 107.06 10.6C107.636 10.488 108.204 10.464 108.764 10.528C109.34 10.592 109.892 10.744 110.42 10.984C110.964 11.224 111.46 11.56 111.908 11.992C112.276 12.36 112.596 12.808 112.868 13.336C113.14 13.848 113.34 14.352 113.468 14.848C113.74 15.728 113.78 16.616 113.588 17.512C113.396 18.408 113.068 19.24 112.604 20.008C112.38 20.36 112.1 20.68 111.764 20.968C111.444 21.24 111.1 21.464 110.732 21.64C110.252 21.864 109.732 22.016 109.172 22.096C108.612 22.192 108.068 22.216 107.54 22.168C106.58 22.12 105.732 21.88 104.996 21.448C104.276 21.016 103.692 20.464 103.244 19.792C102.812 19.12 102.524 18.36 102.38 17.512C102.252 16.648 102.308 15.768 102.548 14.872C102.804 13.912 103.172 13.136 103.652 12.544C104.148 11.936 104.732 11.472 105.404 11.152ZM106.124 14.368C105.884 14.592 105.7 14.872 105.572 15.208C105.444 15.544 105.364 15.896 105.332 16.264C105.3 16.616 105.324 16.976 105.404 17.344C105.5 17.696 105.644 18.016 105.836 18.304C105.996 18.544 106.284 18.744 106.7 18.904C107.116 19.064 107.548 19.16 107.996 19.192C108.508 19.224 108.956 19.088 109.34 18.784C109.724 18.464 110.012 18.072 110.204 17.608C110.412 17.144 110.508 16.64 110.492 16.096C110.476 15.552 110.332 15.056 110.06 14.608C109.868 14.288 109.596 14.056 109.244 13.912C108.908 13.752 108.548 13.672 108.164 13.672C107.796 13.656 107.428 13.712 107.06 13.84C106.692 13.952 106.38 14.128 106.124 14.368ZM40.102 36.52C40.71 37.08 41.158 37.752 41.446 38.536C41.734 39.304 41.846 40.072 41.782 40.84C41.718 41.576 41.486 42.256 41.086 42.88C40.686 43.488 40.078 43.952 39.262 44.272C38.622 44.544 37.99 44.736 37.366 44.848C36.742 44.96 36.054 45.048 35.302 45.112C34.966 45.144 34.678 45.168 34.438 45.184C34.214 45.184 33.95 45.192 33.646 45.208C33.582 45.208 33.47 45.208 33.31 45.208C33.166 45.208 33.062 45.216 32.998 45.232V50.2C32.95 50.504 32.886 50.816 32.806 51.136C32.742 51.456 32.558 51.704 32.254 51.88C32.078 51.976 31.862 52.032 31.606 52.048C31.35 52.064 31.118 52.056 30.91 52.024C30.686 51.992 30.494 51.936 30.334 51.856C30.19 51.76 30.07 51.6 29.974 51.376C29.91 51.232 29.846 51.072 29.782 50.896C29.734 50.704 29.71 50.472 29.71 50.2V36.928C29.71 36.816 29.718 36.712 29.734 36.616C29.75 36.52 29.766 36.424 29.782 36.328C29.814 36.248 29.838 36.16 29.854 36.064C29.87 35.968 29.894 35.88 29.926 35.8C29.958 35.72 29.99 35.648 30.022 35.584C30.07 35.52 30.126 35.464 30.19 35.416C30.27 35.336 30.39 35.264 30.55 35.2C30.726 35.136 30.982 35.104 31.318 35.104H31.366C31.862 35.072 32.414 35.048 33.022 35.032C33.63 35 34.134 35.008 34.534 35.056C34.758 35.088 34.966 35.112 35.158 35.128C35.35 35.128 35.534 35.136 35.71 35.152C35.902 35.168 36.094 35.184 36.286 35.2C36.478 35.216 36.67 35.24 36.862 35.272C37.022 35.304 37.166 35.328 37.294 35.344C37.438 35.36 37.582 35.384 37.726 35.416C37.854 35.448 37.99 35.48 38.134 35.512C38.294 35.544 38.438 35.6 38.566 35.68C38.902 35.776 39.182 35.896 39.406 36.04C39.63 36.184 39.862 36.344 40.102 36.52ZM38.662 40.48C38.678 40.096 38.598 39.76 38.422 39.472C38.262 39.184 38.03 38.944 37.726 38.752C37.422 38.56 37.078 38.408 36.694 38.296C36.31 38.184 35.926 38.104 35.542 38.056C35.446 38.056 35.31 38.056 35.134 38.056C34.974 38.04 34.798 38.032 34.606 38.032C34.414 38.016 34.23 38.008 34.054 38.008C33.894 37.992 33.766 37.984 33.67 37.984C33.59 37.968 33.494 37.96 33.382 37.96C33.27 37.96 33.142 37.96 32.998 37.96C33.014 38.456 33.022 38.936 33.022 39.4C33.022 39.848 33.022 40.336 33.022 40.864C33.006 41.152 32.998 41.44 32.998 41.728C32.998 42.016 32.998 42.296 32.998 42.568L34.486 42.544C34.87 42.544 35.294 42.52 35.758 42.472C36.222 42.424 36.662 42.328 37.078 42.184C37.494 42.04 37.846 41.832 38.134 41.56C38.438 41.288 38.614 40.928 38.662 40.48ZM46.9411 50.08C46.9251 50.16 46.9091 50.24 46.8931 50.32C46.8931 50.384 46.8931 50.456 46.8931 50.536L46.7491 51.04C46.7171 51.104 46.6931 51.144 46.6771 51.16L46.6051 51.304C46.5251 51.48 46.3811 51.624 46.1731 51.736C45.7891 51.928 45.3811 51.976 44.9491 51.88C44.6771 51.848 44.4611 51.768 44.3011 51.64C44.1411 51.528 44.0291 51.392 43.9651 51.232C43.9011 51.072 43.8531 50.912 43.8211 50.752C43.7731 50.592 43.7491 50.448 43.7491 50.32V36.88C43.7491 36.768 43.7491 36.672 43.7491 36.592C43.7651 36.496 43.7811 36.408 43.7971 36.328C43.8131 36.216 43.8291 36.12 43.8451 36.04C43.8771 35.96 43.9091 35.872 43.9411 35.776C43.9891 35.616 44.0771 35.488 44.2051 35.392C44.3971 35.248 44.5811 35.168 44.7571 35.152C44.8691 35.12 44.9731 35.104 45.0691 35.104C45.1651 35.088 45.2771 35.08 45.4051 35.08C45.6291 35.08 45.8851 35.144 46.1731 35.272C46.3971 35.4 46.5571 35.576 46.6531 35.8C46.8131 36.12 46.8931 36.416 46.8931 36.688C46.9091 36.848 46.9171 37.088 46.9171 37.408C46.9331 37.728 46.9411 37.968 46.9411 38.128V38.224C46.9731 38.736 46.9891 39.232 46.9891 39.712C46.9891 40.176 46.9811 40.688 46.9651 41.248C46.9651 41.792 46.9571 42.32 46.9411 42.832C46.9411 43.328 46.9411 43.824 46.9411 44.32V49.36C46.9411 49.424 46.9411 49.488 46.9411 49.552C46.9571 49.6 46.9651 49.656 46.9651 49.72C46.9651 49.88 46.9571 50 46.9411 50.08ZM51.7133 41.896C52.1933 41.656 52.6973 41.488 53.2253 41.392C53.7533 41.28 54.2733 41.256 54.7853 41.32C55.3133 41.368 55.8173 41.504 56.2973 41.728C56.7773 41.936 57.2253 42.24 57.6413 42.64C58.0573 43.056 58.3773 43.512 58.6013 44.008C58.8253 44.504 58.9853 45.056 59.0813 45.664C59.1453 46.08 59.2493 46.464 59.3933 46.816C59.5373 47.168 59.6893 47.52 59.8493 47.872C60.0253 48.224 60.1853 48.576 60.3293 48.928C60.4893 49.28 60.6173 49.648 60.7133 50.032C60.7933 50.4 60.7613 50.76 60.6173 51.112C60.4893 51.448 60.2173 51.656 59.8013 51.736C59.5613 51.784 59.3293 51.768 59.1053 51.688C58.8973 51.592 58.7053 51.464 58.5293 51.304C58.3533 51.128 58.1933 50.944 58.0493 50.752C57.9213 50.544 57.8013 50.352 57.6893 50.176C57.3213 50.656 56.9213 51.032 56.4893 51.304C56.0573 51.56 55.5373 51.728 54.9293 51.808C54.4173 51.872 53.9293 51.888 53.4653 51.856C53.0013 51.824 52.5053 51.736 51.9773 51.592C51.2893 51.416 50.7213 51.112 50.2733 50.68C49.8413 50.232 49.5053 49.72 49.2653 49.144C49.0413 48.552 48.9213 47.92 48.9053 47.248C48.8893 46.576 48.9693 45.912 49.1453 45.256C49.3693 44.392 49.7053 43.688 50.1533 43.144C50.6013 42.6 51.1213 42.184 51.7133 41.896ZM52.3133 44.704C52.0893 44.928 51.9133 45.192 51.7853 45.496C51.6573 45.8 51.5773 46.12 51.5453 46.456C51.5293 46.792 51.5613 47.128 51.6413 47.464C51.7213 47.8 51.8493 48.096 52.0253 48.352C52.1853 48.576 52.4573 48.768 52.8413 48.928C53.2253 49.072 53.6253 49.16 54.0413 49.192C54.5213 49.224 54.9373 49.096 55.2893 48.808C55.6573 48.52 55.9293 48.16 56.1053 47.728C56.2973 47.28 56.3853 46.808 56.3693 46.312C56.3533 45.8 56.2173 45.336 55.9613 44.92C55.7693 44.616 55.5133 44.392 55.1933 44.248C54.8893 44.104 54.5613 44.032 54.2093 44.032C53.8573 44.016 53.5053 44.072 53.1533 44.2C52.8173 44.312 52.5373 44.48 52.3133 44.704ZM71.638 42.76C71.766 42.984 71.83 43.224 71.83 43.48C71.846 43.736 71.79 43.976 71.662 44.2C71.518 44.488 71.31 44.688 71.038 44.8C70.782 44.896 70.494 44.904 70.174 44.824C70.03 44.792 69.902 44.736 69.79 44.656C69.678 44.576 69.558 44.496 69.43 44.416C69.318 44.32 69.182 44.232 69.022 44.152C68.878 44.072 68.686 44.016 68.446 43.984C68.206 43.952 67.942 43.952 67.654 43.984C67.382 44.016 67.134 44.08 66.91 44.176C66.558 44.352 66.278 44.624 66.07 44.992C65.862 45.344 65.726 45.728 65.662 46.144C65.598 46.544 65.606 46.952 65.686 47.368C65.782 47.784 65.958 48.136 66.214 48.424C66.406 48.648 66.654 48.832 66.958 48.976C67.278 49.12 67.582 49.208 67.87 49.24C68.142 49.272 68.414 49.272 68.686 49.24C68.958 49.192 69.222 49.128 69.478 49.048C69.67 48.968 69.886 48.864 70.126 48.736C70.366 48.592 70.598 48.504 70.822 48.472C71.11 48.472 71.334 48.552 71.494 48.712C71.654 48.856 71.766 49.04 71.83 49.264C71.894 49.472 71.902 49.696 71.854 49.936C71.822 50.176 71.734 50.384 71.59 50.56C71.398 50.8 71.126 51.032 70.774 51.256C70.422 51.464 70.086 51.616 69.766 51.712C69.382 51.84 68.95 51.912 68.47 51.928C68.006 51.944 67.566 51.928 67.15 51.88C66.958 51.848 66.758 51.808 66.55 51.76C66.342 51.712 66.142 51.656 65.95 51.592C65.246 51.336 64.654 50.976 64.174 50.512C63.71 50.032 63.35 49.496 63.094 48.904C62.854 48.312 62.718 47.68 62.686 47.008C62.654 46.336 62.734 45.672 62.926 45.016C63.102 44.392 63.318 43.864 63.574 43.432C63.846 43 64.158 42.648 64.51 42.376C64.878 42.088 65.286 41.864 65.734 41.704C66.182 41.528 66.678 41.376 67.222 41.248C67.782 41.136 68.374 41.136 68.998 41.248C69.622 41.36 70.182 41.568 70.678 41.872C71.062 42.08 71.382 42.376 71.638 42.76ZM82.0999 48.712C82.2919 48.664 82.4839 48.632 82.6759 48.616C82.8839 48.6 83.0679 48.624 83.2279 48.688C83.4039 48.752 83.5479 48.864 83.6599 49.024C83.7719 49.168 83.8279 49.376 83.8279 49.648C83.8279 49.84 83.7799 50.024 83.6839 50.2C83.5879 50.376 83.4679 50.536 83.3239 50.68C83.1799 50.824 83.0199 50.952 82.8439 51.064C82.6679 51.16 82.4999 51.24 82.3399 51.304C81.8759 51.512 81.3399 51.672 80.7319 51.784C80.1399 51.896 79.5239 51.936 78.8839 51.904C78.0199 51.872 77.1879 51.704 76.3879 51.4C75.6039 51.08 74.9879 50.56 74.5399 49.84C74.1239 49.136 73.8759 48.352 73.7959 47.488C73.7159 46.624 73.7559 45.808 73.9159 45.04C74.0919 44.112 74.3879 43.36 74.8039 42.784C75.2359 42.192 75.7479 41.72 76.3399 41.368C77.0599 40.952 77.8679 40.736 78.7639 40.72C79.6599 40.704 80.5159 40.88 81.3319 41.248C81.8759 41.488 82.3639 41.816 82.7959 42.232C83.2279 42.632 83.5559 43.12 83.7799 43.696C83.8439 43.84 83.8919 44.016 83.9239 44.224C83.9719 44.432 84.0039 44.656 84.0199 44.896C84.0359 45.12 84.0359 45.344 84.0199 45.568C84.0039 45.792 83.9639 45.992 83.8999 46.168C83.8039 46.456 83.6839 46.68 83.5399 46.84C83.3959 47 83.2119 47.12 82.9879 47.2C82.7639 47.28 82.4919 47.336 82.1719 47.368C81.8679 47.384 81.4999 47.4 81.0679 47.416C80.6839 47.432 80.3239 47.44 79.9879 47.44C79.6519 47.44 79.3079 47.44 78.9559 47.44C78.6039 47.424 78.2359 47.416 77.8519 47.416C77.4839 47.4 77.0679 47.384 76.6039 47.368C76.5559 47.688 76.5959 47.968 76.7239 48.208C76.8679 48.432 77.0599 48.624 77.2999 48.784C77.5399 48.928 77.8119 49.04 78.1159 49.12C78.4199 49.2 78.7159 49.248 79.0039 49.264C79.5479 49.296 80.0679 49.256 80.5639 49.144C81.0599 49.016 81.5719 48.872 82.0999 48.712ZM81.0679 44.056C80.7639 43.704 80.4439 43.448 80.1079 43.288C79.8519 43.176 79.5799 43.128 79.2919 43.144C79.0199 43.144 78.7559 43.184 78.4999 43.264C78.0359 43.376 77.6439 43.616 77.3239 43.984C77.2919 44.016 77.2359 44.096 77.1559 44.224C77.0759 44.336 76.9959 44.456 76.9159 44.584C76.8519 44.712 76.8039 44.832 76.7719 44.944C76.7399 45.056 76.7559 45.112 76.8199 45.112H81.5239C81.5079 44.888 81.4679 44.704 81.4039 44.56C81.3399 44.4 81.2279 44.232 81.0679 44.056ZM95.32 47.272C95.336 47.592 95.344 47.928 95.344 48.28C95.344 48.616 95.336 48.928 95.32 49.216C95.304 49.648 95.28 50.048 95.248 50.416C95.216 50.768 95.152 51.072 95.056 51.328C94.96 51.568 94.808 51.752 94.6 51.88C94.408 51.992 94.136 52.024 93.784 51.976C93.416 51.928 93.152 51.752 92.992 51.448C92.832 51.144 92.72 50.8 92.656 50.416C92.608 50.016 92.592 49.616 92.608 49.216C92.624 48.816 92.624 48.504 92.608 48.28C92.592 47.928 92.576 47.528 92.56 47.08C92.56 46.616 92.512 46.184 92.416 45.784C92.336 45.368 92.192 45.016 91.984 44.728C91.776 44.44 91.464 44.288 91.048 44.272C90.52 44.24 90.112 44.28 89.824 44.392C89.552 44.504 89.352 44.672 89.224 44.896C89.096 45.104 89.016 45.36 88.984 45.664C88.968 45.968 88.936 46.296 88.888 46.648L88.864 47.584V49.336C88.864 49.624 88.856 49.928 88.84 50.248C88.84 50.552 88.792 50.832 88.696 51.088C88.6 51.344 88.448 51.56 88.24 51.736C88.048 51.912 87.76 52 87.376 52C86.896 52 86.536 51.848 86.296 51.544C86.072 51.224 85.96 50.832 85.96 50.368V36.568C85.96 36.472 85.96 36.384 85.96 36.304C85.976 36.208 85.992 36.112 86.008 36.016C86.04 35.92 86.064 35.832 86.08 35.752C86.096 35.656 86.12 35.568 86.152 35.488C86.2 35.328 86.28 35.208 86.392 35.128C86.472 35.048 86.552 34.984 86.632 34.936C86.712 34.888 86.8 34.856 86.896 34.84C86.976 34.824 87.064 34.816 87.16 34.816C87.256 34.8 87.352 34.792 87.448 34.792C87.688 34.792 87.92 34.864 88.144 35.008C88.24 35.072 88.328 35.144 88.408 35.224C88.488 35.288 88.552 35.384 88.6 35.512C88.728 35.816 88.792 36.104 88.792 36.376C88.808 36.456 88.816 36.576 88.816 36.736C88.832 36.88 88.84 37.032 88.84 37.192C88.84 37.352 88.84 37.512 88.84 37.672C88.856 37.816 88.864 37.928 88.864 38.008V38.128C88.88 38.64 88.888 39.16 88.888 39.688C88.888 40.216 88.888 40.752 88.888 41.296V41.704C89.56 41.48 90.264 41.376 91 41.392C91.736 41.392 92.392 41.536 92.968 41.824C93.56 42.128 94.008 42.472 94.312 42.856C94.632 43.24 94.864 43.664 95.008 44.128C95.152 44.592 95.232 45.088 95.248 45.616C95.28 46.144 95.304 46.696 95.32 47.272ZM100.353 41.152C100.881 40.896 101.433 40.712 102.009 40.6C102.585 40.488 103.153 40.464 103.713 40.528C104.289 40.592 104.841 40.744 105.369 40.984C105.913 41.224 106.409 41.56 106.857 41.992C107.225 42.36 107.545 42.808 107.817 43.336C108.089 43.848 108.289 44.352 108.417 44.848C108.689 45.728 108.729 46.616 108.537 47.512C108.345 48.408 108.017 49.24 107.553 50.008C107.329 50.36 107.049 50.68 106.713 50.968C106.393 51.24 106.049 51.464 105.681 51.64C105.201 51.864 104.681 52.016 104.121 52.096C103.561 52.192 103.017 52.216 102.489 52.168C101.529 52.12 100.681 51.88 99.9449 51.448C99.2249 51.016 98.6409 50.464 98.1929 49.792C97.7609 49.12 97.4729 48.36 97.3289 47.512C97.2009 46.648 97.2569 45.768 97.4969 44.872C97.7529 43.912 98.1209 43.136 98.6009 42.544C99.0969 41.936 99.6809 41.472 100.353 41.152ZM101.073 44.368C100.833 44.592 100.649 44.872 100.521 45.208C100.393 45.544 100.313 45.896 100.281 46.264C100.249 46.616 100.273 46.976 100.353 47.344C100.449 47.696 100.593 48.016 100.785 48.304C100.945 48.544 101.233 48.744 101.649 48.904C102.065 49.064 102.497 49.16 102.945 49.192C103.457 49.224 103.905 49.088 104.289 48.784C104.673 48.464 104.961 48.072 105.153 47.608C105.361 47.144 105.457 46.64 105.441 46.096C105.425 45.552 105.281 45.056 105.009 44.608C104.817 44.288 104.545 44.056 104.193 43.912C103.857 43.752 103.497 43.672 103.113 43.672C102.745 43.656 102.377 43.712 102.009 43.84C101.641 43.952 101.329 44.128 101.073 44.368ZM114.019 50.08C114.003 50.16 113.987 50.24 113.971 50.32C113.971 50.384 113.971 50.456 113.971 50.536L113.827 51.04C113.795 51.104 113.771 51.144 113.755 51.16L113.683 51.304C113.603 51.48 113.459 51.624 113.251 51.736C112.867 51.928 112.459 51.976 112.027 51.88C111.755 51.848 111.539 51.768 111.379 51.64C111.219 51.528 111.107 51.392 111.043 51.232C110.979 51.072 110.931 50.912 110.899 50.752C110.851 50.592 110.827 50.448 110.827 50.32V36.88C110.827 36.768 110.827 36.672 110.827 36.592C110.843 36.496 110.859 36.408 110.875 36.328C110.891 36.216 110.907 36.12 110.923 36.04C110.955 35.96 110.987 35.872 111.019 35.776C111.067 35.616 111.155 35.488 111.283 35.392C111.475 35.248 111.659 35.168 111.835 35.152C111.947 35.12 112.051 35.104 112.147 35.104C112.243 35.088 112.355 35.08 112.483 35.08C112.707 35.08 112.963 35.144 113.251 35.272C113.475 35.4 113.635 35.576 113.731 35.8C113.891 36.12 113.971 36.416 113.971 36.688C113.987 36.848 113.995 37.088 113.995 37.408C114.011 37.728 114.019 37.968 114.019 38.128V38.224C114.051 38.736 114.067 39.232 114.067 39.712C114.067 40.176 114.059 40.688 114.043 41.248C114.043 41.792 114.035 42.32 114.019 42.832C114.019 43.328 114.019 43.824 114.019 44.32V49.36C114.019 49.424 114.019 49.488 114.019 49.552C114.035 49.6 114.043 49.656 114.043 49.72C114.043 49.88 114.035 50 114.019 50.08ZM123.471 35.224C123.775 35.144 124.039 35.136 124.263 35.2C124.503 35.248 124.703 35.352 124.863 35.512C125.039 35.672 125.167 35.872 125.247 36.112C125.343 36.352 125.391 36.616 125.391 36.904C125.407 37.704 125.407 38.328 125.391 38.776C125.391 39.224 125.391 39.616 125.391 39.952V47.32C125.391 48.184 125.391 48.904 125.391 49.48C125.391 50.056 125.359 50.528 125.295 50.896C125.247 51.248 125.151 51.512 125.007 51.688C124.879 51.864 124.679 51.984 124.407 52.048C124.135 52.128 123.775 52.168 123.327 52.168C122.895 52.168 122.351 52.168 121.695 52.168C119.967 52.168 118.599 51.76 117.591 50.944C116.599 50.128 116.071 48.832 116.007 47.056C115.975 46.288 116.071 45.584 116.295 44.944C116.519 44.304 116.847 43.76 117.279 43.312C117.727 42.848 118.271 42.496 118.911 42.256C119.567 42 120.311 41.88 121.143 41.896H122.463V37.6C122.463 37.344 122.463 37.096 122.463 36.856C122.463 36.6 122.487 36.368 122.535 36.16C122.583 35.936 122.679 35.744 122.823 35.584C122.967 35.424 123.183 35.304 123.471 35.224ZM119.295 48.544C119.631 49.008 120.239 49.264 121.119 49.312C121.295 49.328 121.463 49.336 121.623 49.336C121.783 49.32 121.927 49.296 122.055 49.264C122.199 49.248 122.335 49.224 122.463 49.192V44.752C121.903 44.656 121.391 44.6 120.927 44.584C120.479 44.552 120.031 44.712 119.583 45.064C119.343 45.256 119.159 45.504 119.031 45.808C118.903 46.096 118.831 46.408 118.815 46.744C118.799 47.064 118.831 47.384 118.911 47.704C118.991 48.024 119.119 48.304 119.295 48.544ZM135.631 48.712C135.823 48.664 136.015 48.632 136.207 48.616C136.415 48.6 136.599 48.624 136.759 48.688C136.935 48.752 137.079 48.864 137.191 49.024C137.303 49.168 137.359 49.376 137.359 49.648C137.359 49.84 137.311 50.024 137.215 50.2C137.119 50.376 136.999 50.536 136.855 50.68C136.711 50.824 136.551 50.952 136.375 51.064C136.199 51.16 136.031 51.24 135.871 51.304C135.407 51.512 134.871 51.672 134.263 51.784C133.671 51.896 133.055 51.936 132.415 51.904C131.551 51.872 130.719 51.704 129.919 51.4C129.135 51.08 128.519 50.56 128.071 49.84C127.655 49.136 127.407 48.352 127.327 47.488C127.247 46.624 127.287 45.808 127.447 45.04C127.623 44.112 127.919 43.36 128.335 42.784C128.767 42.192 129.279 41.72 129.871 41.368C130.591 40.952 131.399 40.736 132.295 40.72C133.191 40.704 134.047 40.88 134.863 41.248C135.407 41.488 135.895 41.816 136.327 42.232C136.759 42.632 137.087 43.12 137.311 43.696C137.375 43.84 137.423 44.016 137.455 44.224C137.503 44.432 137.535 44.656 137.551 44.896C137.567 45.12 137.567 45.344 137.551 45.568C137.535 45.792 137.495 45.992 137.431 46.168C137.335 46.456 137.215 46.68 137.071 46.84C136.927 47 136.743 47.12 136.519 47.2C136.295 47.28 136.023 47.336 135.703 47.368C135.399 47.384 135.031 47.4 134.599 47.416C134.215 47.432 133.855 47.44 133.519 47.44C133.183 47.44 132.839 47.44 132.487 47.44C132.135 47.424 131.767 47.416 131.383 47.416C131.015 47.4 130.599 47.384 130.135 47.368C130.087 47.688 130.127 47.968 130.255 48.208C130.399 48.432 130.591 48.624 130.831 48.784C131.071 48.928 131.343 49.04 131.647 49.12C131.951 49.2 132.247 49.248 132.535 49.264C133.079 49.296 133.599 49.256 134.095 49.144C134.591 49.016 135.103 48.872 135.631 48.712ZM134.599 44.056C134.295 43.704 133.975 43.448 133.639 43.288C133.383 43.176 133.111 43.128 132.823 43.144C132.551 43.144 132.287 43.184 132.031 43.264C131.567 43.376 131.175 43.616 130.855 43.984C130.823 44.016 130.767 44.096 130.687 44.224C130.607 44.336 130.527 44.456 130.447 44.584C130.383 44.712 130.335 44.832 130.303 44.944C130.271 45.056 130.287 45.112 130.351 45.112H135.055C135.039 44.888 134.999 44.704 134.935 44.56C134.871 44.4 134.759 44.232 134.599 44.056ZM139.515 43.504C139.515 43.312 139.515 43.096 139.515 42.856C139.515 42.6 139.523 42.344 139.539 42.088C139.555 41.816 139.579 41.56 139.611 41.32C139.659 41.064 139.723 40.84 139.803 40.648C139.931 40.36 140.131 40.168 140.403 40.072C140.675 39.96 140.971 39.912 141.291 39.928C141.627 39.928 141.891 39.984 142.083 40.096C142.275 40.208 142.419 40.36 142.515 40.552C142.611 40.728 142.667 40.936 142.683 41.176C142.715 41.4 142.731 41.64 142.731 41.896C142.875 41.64 143.067 41.432 143.307 41.272C143.563 41.112 143.819 40.984 144.075 40.888C144.331 40.792 144.563 40.728 144.771 40.696C144.979 40.648 145.099 40.624 145.131 40.624C145.531 40.592 145.891 40.584 146.211 40.6C146.547 40.616 146.915 40.688 147.315 40.816C147.571 40.912 147.835 41.048 148.107 41.224C148.379 41.384 148.619 41.576 148.827 41.8C149.035 42.024 149.171 42.272 149.235 42.544C149.315 42.8 149.283 43.072 149.139 43.36C148.915 43.76 148.667 43.96 148.395 43.96C148.123 43.944 147.827 43.896 147.507 43.816C147.331 43.784 147.123 43.712 146.883 43.6C146.643 43.488 146.435 43.416 146.259 43.384C145.715 43.304 145.235 43.344 144.819 43.504C144.403 43.664 144.043 43.856 143.739 44.08C143.387 44.352 143.083 44.664 142.827 45.016V48.472C142.827 48.904 142.819 49.352 142.803 49.816C142.803 50.28 142.739 50.704 142.611 51.088C142.499 51.456 142.299 51.76 142.011 52C141.739 52.224 141.339 52.32 140.811 52.288C140.523 52.272 140.267 52.136 140.043 51.88C139.819 51.608 139.683 51.344 139.635 51.088C139.603 50.848 139.579 50.56 139.563 50.224C139.547 49.888 139.531 49.536 139.515 49.168C139.515 48.8 139.515 48.432 139.515 48.064C139.515 47.68 139.515 47.328 139.515 47.008V43.504Z" fill="white"/>
</svg>
